<?xml version="1.0" encoding="UTF-8"?>
<svg xmlns="http://www.w3.org/2000/svg" version="1.1" viewBox="0 0 2500 1500">
  <defs>
    <style>
      .cls-1 {
        fill: #f3ede3;
      }

      .cls-2 {
        fill: #fd491f;
      }

      .cls-3 {
        fill: #182342;
      }
    </style>
  </defs>
  <!-- Generator: Adobe Illustrator 28.6.0, SVG Export Plug-In . SVG Version: 1.2.0 Build 709)  -->
  <g>
    <g id="Background">
      <rect class="cls-1" x="0" width="2500" height="1500"/>
    </g>
    <g id="Illustration">
      <g>
        <rect class="cls-1" x=".2" y="1300.9" width="725.3" height="14"/>
        <path class="cls-3" d="M725.5,1315.9H.2c-.6,0-1-.4-1-1v-14c0-.6.4-1,1-1h725.3c.6,0,1,.4,1,1v14c0,.6-.4,1-1,1ZM1.2,1313.9h723.3v-12H1.2v12Z"/>
      </g>
      <g>
        <rect class="cls-1" x="694.2" y="251.8" width="334.8" height="281.8"/>
        <path class="cls-3" d="M1029,534.6h-334.8c-.6,0-1-.4-1-1V251.8c0-.6.4-1,1-1h334.8c.6,0,1,.4,1,1v281.8c0,.6-.4,1-1,1ZM695.2,532.6h332.8V252.8h-332.8v279.8Z"/>
      </g>
      <g>
        <rect class="cls-3" x="647.7" y="303" width="291.9" height="46.1"/>
        <path class="cls-3" d="M939.6,350.1h-291.9c-.6,0-1-.4-1-1v-46.1c0-.6.4-1,1-1h291.9c.6,0,1,.4,1,1v46.1c0,.6-.4,1-1,1ZM648.7,348.1h289.9v-44.1h-289.9v44.1Z"/>
      </g>
      <g>
        <rect class="cls-1" x="635.6" y="287.9" width="291.9" height="46.1"/>
        <path class="cls-3" d="M927.5,335h-291.9c-.6,0-1-.4-1-1v-46.1c0-.6.4-1,1-1h291.9c.6,0,1,.4,1,1v46.1c0,.6-.4,1-1,1ZM636.6,333h289.9v-44.1h-289.9v44.1Z"/>
      </g>
      <g>
        <rect class="cls-3" x="647.7" y="386.5" width="291.9" height="46.1"/>
        <path class="cls-3" d="M939.6,433.5h-291.9c-.6,0-1-.4-1-1v-46.1c0-.6.4-1,1-1h291.9c.6,0,1,.4,1,1v46.1c0,.6-.4,1-1,1ZM648.7,431.5h289.9v-44.1h-289.9v44.1Z"/>
      </g>
      <g>
        <rect class="cls-1" x="635.6" y="371.4" width="291.9" height="46.1"/>
        <path class="cls-3" d="M927.5,418.5h-291.9c-.6,0-1-.4-1-1v-46.1c0-.6.4-1,1-1h291.9c.6,0,1,.4,1,1v46.1c0,.6-.4,1-1,1ZM636.6,416.5h289.9v-44.1h-289.9v44.1Z"/>
      </g>
      <g>
        <rect class="cls-1" x="1565.1" y="279.5" width="368.8" height="297.2"/>
        <path class="cls-3" d="M1933.9,577.7h-368.8c-.6,0-1-.4-1-1v-297.2c0-.6.4-1,1-1h368.8c.6,0,1,.4,1,1v297.2c0,.6-.4,1-1,1ZM1566.1,575.7h366.8v-295.2h-366.8v295.2Z"/>
      </g>
      <g>
        <path class="cls-2" d="M1871,452.1c0,13.9-2.3,27.2-6.6,39.5-6.6,18.6-30.9,23.3-43.9,8.6-16.2-18.3-39.9-29.9-66.3-29.9s-50.1,11.6-66.3,29.9c-13.1,14.8-37.4,9.9-44-8.8-4.2-12.1-6.6-25.1-6.6-38.7,0-64.5,52.3-116.8,116.8-116.8,64.5,0,116.5,51.7,116.8,116.2Z"/>
        <path class="cls-3" d="M1839.7,509.9c-7.6,0-14.8-3.2-20-9-16.6-18.8-40.5-29.6-65.6-29.6s-48.9,10.8-65.6,29.6c-6.3,7.2-15.8,10.3-25.2,8.5-9.6-1.9-17.2-8.5-20.4-17.6-4.4-12.5-6.6-25.6-6.6-39,0-65,52.9-117.8,117.8-117.8,31.5,0,61,12.2,83.2,34.2,22.2,22.1,34.5,51.5,34.7,83,0,13.7-2.2,27.1-6.7,39.8-3.2,9.1-10.8,15.6-20.3,17.4-1.8.3-3.5.5-5.3.5ZM1754.2,469.3c25.6,0,50.1,11,67.1,30.2,5.9,6.6,14.6,9.6,23.4,7.9,8.8-1.7,15.8-7.8,18.8-16.1,4.4-12.6,6.6-25.7,6.6-39.2h0c-.2-30.9-12.3-59.9-34.1-81.6-21.8-21.7-50.8-33.6-81.8-33.6-63.9,0-115.8,52-115.8,115.8s2.2,26.1,6.5,38.4c3,8.5,10.1,14.6,18.9,16.3,8.8,1.7,17.5-1.2,23.4-7.9,17-19.2,41.4-30.2,67.1-30.2Z"/>
      </g>
      <g>
        <path class="cls-1" d="M2134.9,800.7l-151.4,479.2c-6.6,20.9-26,35.1-47.8,35.1h-732c-3.7,0-6.7-3-6.7-6.7v-15.4c0-3.7,3-6.7,6.7-6.7h385.5s170.3-538.3,170.3-538.3h336.7c27.5,0,47,26.7,38.8,52.9Z"/>
        <path class="cls-3" d="M1935.7,1315.9h-732c-4.3,0-7.7-3.5-7.7-7.7v-15.4c0-4.3,3.5-7.7,7.7-7.7h384.8l170.1-537.6c.1-.4.5-.7,1-.7h336.7c13.4,0,25.7,6.2,33.6,17,7.9,10.8,10.2,24.4,6.1,37.2l-151.4,479.2c-6.8,21.4-26.4,35.8-48.8,35.8ZM1203.7,1287.1c-3.2,0-5.7,2.6-5.7,5.7v15.4c0,3.2,2.6,5.7,5.7,5.7h732c21.6,0,40.4-13.8,46.9-34.4l151.4-479.2c3.8-12.2,1.7-25.1-5.8-35.4-7.6-10.3-19.2-16.2-32-16.2h-335.9l-170.1,537.6c-.1.4-.5.7-1,.7h-385.5ZM2134.9,800.7h0,0Z"/>
      </g>
      <g>
        <path class="cls-2" d="M1835.1,1119.8c-19.4,103.4-115.6,144.6-139.4,153.3-1.7.6-3.1,1.1-4,1.4,33.1-11.6,63.8-65.4,25.5-116.1-71.3-94.1-264.8-68.8-285.3-65.8,0,0-.1,0-.2,0-1.1.2-1.6.3-1.6.3,0,0,0-1.6,0-4.1.3-6.2,1.7-17.9,8.5-25.2,9.7-10.5,22.7-8,22.7-8,27.3-63.4,18.3-148.5,4.3-213.1-13.7-13.7-36.3-15.1-40.7-15.2-1.2-53.8-6.2-101.9-.1-119.8,12.5-36.6,47.4-40.4,60.7-40.5,10.3,6.5,24.1,6.5,34.7-1.3,1.8-1.3,3.5-2.6,5.1-3.8,3.1,11.3,15.7,48.2,50.2,45.4,42-3.4,56.8-52.6,60.6-69.5,0,0,62.9-46,120.8-6.2,31.3,21.5,59.1,59.7,84.2,133.3,28.9,84.6,14.7,244.2-6,354.9Z"/>
        <path class="cls-3" d="M1691.7,1275.5c-.4,0-.8-.3-.9-.7-.2-.5,0-1.1.6-1.3,17.7-6.2,33.2-23.7,39.5-44.6,7.1-23.4,1.9-48.2-14.5-69.9-16.2-21.4-40.2-38.3-71.3-50.1-25.3-9.6-55.5-16-89.7-18.8-59.8-5-113.3,2.1-123.4,3.5,0,0-.1,0-.1,0-1.1.2-1.6.3-1.6.3-.3,0-.6,0-.8-.2-.2-.2-.4-.4-.4-.7,0,0,0-1.7,0-4.2.3-6.4,1.8-18.3,8.7-25.8,8.7-9.4,19.8-8.8,22.8-8.4,27.2-64,17.2-150.2,4-211.5-13.4-13.2-35.5-14.6-39.8-14.7-.5,0-1-.4-1-1-.4-15.6-1-30.5-1.7-44.8-1.6-34.9-2.8-62.4,1.6-75.3,12.7-36.9,47.3-41.1,61.7-41.1.2,0,.4,0,.5.2,10.5,6.6,23.7,6.1,33.6-1.3l5.1-3.7c.3-.2.6-.3.9-.1.3.1.6.4.6.7,3,11.2,15.5,47.4,49.1,44.7,41.7-3.4,56.3-53.4,59.7-68.7,0-.2.2-.4.4-.6.2-.1,16.1-11.7,39-18.2,21.2-6,52.7-8.8,82.9,11.9,34.7,23.8,61.6,66.4,84.6,133.8,28.9,84.6,14.8,244.3-6,355.4-8.3,44.2-31.3,82.1-68.4,112.7-29.7,24.5-60,37-71.7,41.3-1.8.6-3.1,1.1-4.1,1.4-.1,0-.2,0-.3,0ZM1511.5,1086.3c68.3,0,161.5,12.1,206.5,71.5,16.8,22.2,22,47.6,14.8,71.7-4.7,15.7-14.5,29.5-26.5,38.3,14.7-6.3,37.6-18,60.2-36.6,36.7-30.3,59.5-67.8,67.7-111.5,20.8-110.8,34.8-270.1,6-354.4-22.9-67-49.5-109.2-83.8-132.8-29.6-20.3-60.5-17.6-81.2-11.7-20.8,5.9-35.8,16.1-38.1,17.7-3.7,16-18.7,66.4-61.4,69.9-1.3.1-2.5.2-3.7.2-31.1,0-43.5-32.5-47.1-44.9l-3.9,2.9c-10.5,7.8-24.5,8.4-35.6,1.5-14.1.1-47.3,4.4-59.5,39.8-4.3,12.5-3.1,39.9-1.5,74.6.6,14.1,1.3,28.6,1.6,43.9,6.1.3,27.3,2.4,40.4,15.5.1.1.2.3.3.5,13.4,61.8,23.5,149.1-4.4,213.7-.2.4-.6.7-1.1.6-.1,0-12.6-2.3-21.8,7.7-6.5,7-7.9,18.4-8.2,24.6,0,1.2,0,2.2,0,2.9.2,0,.3,0,.5,0,0,0,.1,0,.1,0,8.1-1.2,39.7-5.4,79.8-5.4Z"/>
      </g>
      <g>
        <ellipse class="cls-3" cx="1230.5" cy="1201.6" rx="137.8" ry="91.6"/>
        <path class="cls-3" d="M1230.5,1294.2c-76.5,0-138.8-41.5-138.8-92.6s62.3-92.6,138.8-92.6,138.8,41.5,138.8,92.6-62.3,92.6-138.8,92.6ZM1230.5,1111.1c-75.4,0-136.8,40.6-136.8,90.6s61.4,90.6,136.8,90.6,136.8-40.6,136.8-90.6-61.4-90.6-136.8-90.6Z"/>
      </g>
      <g>
        <path class="cls-1" d="M1261.7,1124.6s111-.8,106.6,77.1c-2.9,50.4-90,54.7-122.9,66.1-23.8,8.2-50.6,30.2-96.7,27.7-48.3-2.6-78.2-37.1-62.1-77.5,33-82.5,175.1-93.4,175.1-93.4"/>
        <path class="cls-3" d="M1155.8,1296.7c-2.4,0-4.8,0-7.3-.2-26.6-1.5-48.4-12.4-59.6-30.1-9-14.2-10.2-31.5-3.3-48.7,17.2-43,64.2-66.2,100.6-78.2,39.3-12.9,75.1-15.8,75.4-15.8,0,0,0,0,.1,0,2.3,0,62,.4,91.3,31.2,11.8,12.5,17.3,28.2,16.2,46.9-2.3,39.7-55.6,51.3-94.5,59.7-11.6,2.5-21.7,4.7-29.1,7.3-6.3,2.2-12.8,5.3-19.8,8.7-17.9,8.6-39.8,19.2-70.1,19.2ZM1261.8,1125.6c-1.3.1-36.4,3.1-75,15.8-65.2,21.5-90,53.7-99.3,77.1-6.7,16.6-5.5,33.3,3.1,46.9,10.9,17.1,32.1,27.8,58.1,29.2,33.6,1.8,57.3-9.6,76.3-18.8,7-3.4,13.6-6.6,20-8.8,7.5-2.6,17.6-4.8,29.3-7.3,38.3-8.3,90.7-19.7,92.9-57.9,1-18.1-4.2-33.4-15.7-45.5-28.9-30.4-88.1-30.6-89.8-30.6Z"/>
      </g>
      <path class="cls-3" d="M452.9,1221.6h-32c-.6,0-1-.4-1-1v-460.2c0-.6.4-1,1-1h32c.6,0,1,.4,1,1v460.2c0,.6-.4,1-1,1ZM421.9,1219.6h30v-458.2h-30v458.2Z"/>
      <path class="cls-3" d="M517.8,464.8c-12.7-5.8-25.9-10.1-39.7-12.6-9.8-1.8-19.9-2.8-30.1-2.8-107.8,0-195.2,104.7-195.2,233.8s87.4,233.8,195.2,233.8,195.2-104.6,195.2-233.8-52.1-184.7-125.4-218.4ZM455.4,898.6c-99.2,0-179.6-96.5-179.6-215.4s62.6-192.4,145.4-211.6c9.4-2.1,19-3.4,28.8-3.8h0c1.8,0,3.5,0,5.3,0,10.4,0,20.7,1.1,30.6,3.1,5.2,1.1,10.4,2.4,15.5,4,76.9,24.4,133.5,108.4,133.5,208.3s-80.4,215.4-179.6,215.4Z"/>
      <g>
        <path class="cls-1" d="M635,683.2c0,119-80.4,215.4-179.6,215.4s-179.6-96.5-179.6-215.4,62.6-192.4,145.4-211.6c9.4-2.1,19-3.4,28.8-3.8h0c1.8,0,3.5,0,5.3,0,10.4,0,20.7,1.1,30.6,3.1,5.2,1.1,10.4,2.4,15.5,4,76.9,24.4,133.5,108.4,133.5,208.3Z"/>
        <path class="cls-3" d="M455.4,899.6c-99.6,0-180.6-97.1-180.6-216.4s61.5-192.9,146.2-212.5c9.5-2.2,19.3-3.5,29-3.8,0,0,.1,0,.1,0,1.6,0,3.4,0,5.3,0,10.4,0,20.7,1.1,30.8,3.2,5.2,1.1,10.4,2.4,15.6,4.1,79,25.1,134.2,111.1,134.2,209.2s-81,216.4-180.6,216.4ZM455.4,468.7c-1.8,0-3.6,0-5.3,0,0,0-.1,0-.1,0-9.5.3-19.2,1.6-28.6,3.8-83.8,19.4-144.6,108-144.6,210.6s80.1,214.4,178.6,214.4,178.6-96.2,178.6-214.4-54.6-182.5-132.8-207.3c-5.1-1.6-10.2-3-15.4-4-10-2.1-20.2-3.1-30.4-3.1Z"/>
      </g>
      <g>
        <path class="cls-1" d="M635,683.2c0,119-80.4,215.4-179.6,215.4s-179.6-96.5-179.6-215.4,62.6-192.4,145.4-211.6c9.4-2.1,19-3.4,28.8-3.8h0c1.8,0,3.5,0,5.3,0,10.4,0,20.7,1.1,30.6,3.1,5.2,1.1,10.4,2.4,15.5,4,76.9,24.4,133.5,108.4,133.5,208.3Z"/>
        <path class="cls-3" d="M455.4,899.6c-99.6,0-180.6-97.1-180.6-216.4s61.5-192.9,146.2-212.5c9.5-2.2,19.3-3.5,29-3.8,0,0,.1,0,.1,0,1.6,0,3.4,0,5.3,0,10.4,0,20.7,1.1,30.8,3.2,5.2,1.1,10.4,2.4,15.6,4.1,79,25.1,134.2,111.1,134.2,209.2s-81,216.4-180.6,216.4ZM455.4,468.7c-1.8,0-3.6,0-5.3,0,0,0-.1,0-.1,0-9.5.3-19.2,1.6-28.6,3.8-83.8,19.4-144.6,108-144.6,210.6s80.1,214.4,178.6,214.4,178.6-96.2,178.6-214.4-54.6-182.5-132.8-207.3c-5.1-1.6-10.2-3-15.4-4-10-2.1-20.2-3.1-30.4-3.1Z"/>
      </g>
      <g>
        <ellipse class="cls-2" cx="458.1" cy="685.1" rx="71.9" ry="101.4"/>
        <path class="cls-3" d="M458.1,787.5c-40.2,0-72.9-45.9-72.9-102.4s32.7-102.4,72.9-102.4,72.9,45.9,72.9,102.4-32.7,102.4-72.9,102.4ZM458.1,584.7c-39.1,0-70.9,45-70.9,100.4s31.8,100.4,70.9,100.4,70.9-45,70.9-100.4-31.8-100.4-70.9-100.4Z"/>
      </g>
      <path class="cls-3" d="M416.6,894.6c-.2,0-.3,0-.5-.1-.5-.3-.7-.9-.4-1.4,87.4-161.1,146.2-273.5,179.8-343.8.2-.5.8-.7,1.3-.5.5.2.7.8.5,1.3-33.6,70.3-92.4,182.8-179.8,343.9-.2.3-.5.5-.9.5Z"/>
      <g>
        <path class="cls-1" d="M324.1,536.2c143.4,103.1,253.4,182.2,300.1,215.8"/>
        <path class="cls-3" d="M624.2,752.9c-.2,0-.4,0-.6-.2l-300.1-215.8c-.4-.3-.6-.9-.2-1.4.3-.4.9-.5,1.4-.2l300.1,215.8c.4.3.6.9.2,1.4-.2.3-.5.4-.8.4Z"/>
      </g>
      <path class="cls-3" d="M528.6,880.9c-.5,0-1-.4-1-1-.6-39.4,0-73.8.6-107.1,2.1-111.5,3.6-192.1-50.2-302.8-.2-.5,0-1.1.5-1.3.5-.2,1.1,0,1.3.5,54.1,111.2,52.5,192,50.4,303.7-.6,33.3-1.3,67.7-.6,107,0,.6-.4,1-1,1h0Z"/>
      <path class="cls-3" d="M282.3,741.8c-.5,0-.9-.3-1-.8-.1-.5.2-1.1.7-1.2,141.5-34.5,282.1-68.1,351.8-80.2.5,0,1.1.3,1.2.8,0,.5-.3,1.1-.8,1.2-69.6,12.1-210.2,45.7-351.6,80.2,0,0-.2,0-.2,0Z"/>
      <path class="cls-3" d="M593.3,822.1c-.4,0-.8-.3-1-.7-23.4-77.1-86.5-189.2-193-342.7-.3-.5-.2-1.1.3-1.4.5-.3,1.1-.2,1.4.3,106.5,153.7,169.8,266,193.2,343.3.2.5-.1,1.1-.7,1.2,0,0-.2,0-.3,0Z"/>
      <path class="cls-3" d="M479,894.6c0,0-.1,0-.2,0-.5-.1-.9-.6-.8-1.2,7.8-36.8,17.2-73.8,26.4-109.6,23.6-92.5,48.1-188.1,43.9-284.2,0-.6.4-1,1-1,.5,0,1,.4,1,1,4.2,96.4-20.3,192.2-44,284.8-9.1,35.8-18.6,72.8-26.4,109.6,0,.5-.5.8-1,.8Z"/>
      <path class="cls-3" d="M334.5,843.5c-.3,0-.6-.1-.8-.4-.3-.4-.3-1.1.2-1.4l289.7-233c.4-.3,1.1-.3,1.4.2.3.4.3,1.1-.2,1.4l-289.7,233c-.2.1-.4.2-.6.2Z"/>
      <path class="cls-3" d="M634,706.7c0,0-.2,0-.2,0-69.9-17-182.6-38.3-354.6-67.1-.5,0-.9-.6-.8-1.2,0-.5.6-.9,1.2-.8,172.1,28.8,284.8,50.1,354.8,67.2.5.1.9.7.7,1.2-.1.5-.5.8-1,.8Z"/>
      <g>
        <ellipse class="cls-3" cx="525.8" cy="683.2" rx="18.8" ry="22.6"/>
        <path class="cls-3" d="M525.8,706.7c-10.9,0-19.8-10.6-19.8-23.6s8.9-23.6,19.8-23.6,19.8,10.6,19.8,23.6-8.9,23.6-19.8,23.6ZM525.8,661.6c-9.8,0-17.8,9.7-17.8,21.6s8,21.6,17.8,21.6,17.8-9.7,17.8-21.6-8-21.6-17.8-21.6Z"/>
      </g>
      <path class="cls-3" d="M1905.6,1287.1h-316.4c-.6,0-1-.4-1-1s.4-1,1-1h316.4c24.9,0,46.7-16,54.2-39.7l137.1-434.1c.2-.5.7-.8,1.3-.7.5.2.8.7.7,1.3l-137.1,434.1c-7.8,24.6-30.3,41.1-56.1,41.1Z"/>
      <g>
        <rect class="cls-1" x="785" y="438.7" width="574.5" height="336.6"/>
        <path class="cls-3" d="M1359.5,776.3h-574.5c-.6,0-1-.4-1-1v-336.6c0-.6.4-1,1-1h574.5c.6,0,1,.4,1,1v336.6c0,.6-.4,1-1,1ZM786,774.3h572.5v-334.6h-572.5v334.6Z"/>
      </g>
      <g>
        <rect class="cls-3" x="785" y="387.6" width="574.5" height="51.1"/>
        <path class="cls-3" d="M1359.5,439.7h-574.5c-.6,0-1-.4-1-1v-51.1c0-.6.4-1,1-1h574.5c.6,0,1,.4,1,1v51.1c0,.6-.4,1-1,1ZM786,437.7h572.5v-49.1h-572.5v49.1Z"/>
      </g>
      <g>
        <path class="cls-3" d="M1613.6,496c-.3,0-.6,0-.9,0-4-.5-6.8-4.2-6.3-8.2,2.5-19.5,14.4-37.2,34.4-51.3,14.7-10.3,28.6-15.1,29.2-15.3,3.8-1.3,8,.7,9.2,4.6,1.3,3.8-.7,7.9-4.6,9.2h0c-.5.2-49.1,17.2-53.8,54.6-.5,3.7-3.6,6.4-7.2,6.4Z"/>
        <path class="cls-3" d="M1613.6,497c-.4,0-.7,0-1.1,0-2.2-.3-4.2-1.4-5.5-3.2s-1.9-3.9-1.7-6.1c2.5-19.8,14.6-37.7,34.9-52,14.8-10.4,28.8-15.2,29.4-15.4,4.3-1.5,9,.9,10.5,5.2,1.5,4.3-.9,9-5.2,10.5-.5.2-48.5,17-53.2,53.8-.5,4.1-4.1,7.2-8.2,7.2ZM1672.3,421.8c-.7,0-1.3.1-2,.3-.6.2-14.4,4.9-28.9,15.2-19.8,13.9-31.6,31.4-34,50.6-.2,1.7.2,3.3,1.3,4.6s2.5,2.2,4.2,2.4c3.5.4,6.6-2,7-5.4,4.9-38,54-55.3,54.5-55.4,3.3-1.1,5-4.7,3.9-8-.9-2.6-3.3-4.3-6-4.3Z"/>
      </g>
      <path class="cls-3" d="M935.1,976c-10.4,0-18.5-23.1-18.5-52.5s8.1-52.5,18.5-52.5,18.5,23.1,18.5,52.5-8.1,52.5-18.5,52.5ZM935.1,872.9c-8.9,0-16.5,23.1-16.5,50.5s7.6,50.5,16.5,50.5,16.5-23.1,16.5-50.5-7.6-50.5-16.5-50.5Z"/>
      <path class="cls-3" d="M789.9,899.3c-.2,0-.3,0-.5-.1-.3-.2-30.2-16.3-41.4-48.6-11.3-32.3,2.1-63.5,2.2-63.8.1-.3.3-.5.6-.5.3,0,.6,0,.8,0,.3.2,30.2,16.3,41.4,48.6s-2.1,63.5-2.2,63.8c-.1.3-.3.5-.6.5-.1,0-.2,0-.3,0ZM751.7,788.5c-2.2,5.6-11.6,33.1-1.7,61.3,9.9,28.3,34.3,43.9,39.5,47,2.2-5.6,11.6-33.1,1.7-61.3s-34.3-43.9-39.5-47Z"/>
      <path class="cls-3" d="M909.5,976c-10.4,0-18.5-23.1-18.5-52.5s8.1-52.5,18.5-52.5,18.5,23.1,18.5,52.5-8.1,52.5-18.5,52.5ZM909.5,872.9c-8.9,0-16.5,23.1-16.5,50.5s7.6,50.5,16.5,50.5,16.5-23.1,16.5-50.5-7.6-50.5-16.5-50.5Z"/>
      <path class="cls-3" d="M883.9,976c-10.4,0-18.5-23.1-18.5-52.5s8.1-52.5,18.5-52.5,18.5,23.1,18.5,52.5-8.1,52.5-18.5,52.5ZM883.9,872.9c-8.9,0-16.5,23.1-16.5,50.5s7.6,50.5,16.5,50.5,16.5-23.1,16.5-50.5-7.6-50.5-16.5-50.5Z"/>
      <path class="cls-3" d="M858.3,976c-10.4,0-18.5-23.1-18.5-52.5s8.1-52.5,18.5-52.5,18.5,23.1,18.5,52.5-8.1,52.5-18.5,52.5ZM858.3,872.9c-8.9,0-16.5,23.1-16.5,50.5s7.6,50.5,16.5,50.5,16.5-23.1,16.5-50.5-7.6-50.5-16.5-50.5Z"/>
      <path class="cls-3" d="M959.2,1155.7c0,88-71.3,159.2-159.2,159.2s-159.3-71.3-159.3-159.2,40.3-122.9,97.7-146.9l-42.3-73.3h207.6l-42.3,73.3c57.4,24.1,97.7,80.8,97.7,146.9Z"/>
      <path class="cls-3" d="M704.2,1073.1c-.3,0-.5-.1-.7-.3-2.3-2.4-56.9-58.3-66.4-72.3-16.7-24.6-22.5-51-16.3-74.3,5.2-19.8,19.1-36.1,38.9-45.9,21-10.3,49.5-5.6,69.5,11.5,18.4,15.8,24.9,37.8,17.8,60.5-.2.5-.7.8-1.3.7-.5-.2-.8-.7-.7-1.3,6.8-21.9.6-43.2-17.2-58.4-19.3-16.6-47-21.2-67.3-11.2-19.3,9.5-32.8,25.4-37.9,44.6-6,22.8-.3,48.6,16,72.7,9.4,13.8,65.6,71.5,66.1,72,.4.4.4,1,0,1.4-.2.2-.4.3-.7.3Z"/>
      <path class="cls-3" d="M777,940.9c0,0-.2,0-.3,0-.5-.2-.8-.7-.7-1.3l74.9-239.2c.2-.5.7-.8,1.3-.7.5.2.8.7.7,1.3l-74.9,239.2c-.1.4-.5.7-1,.7Z"/>
      <g>
        <rect class="cls-3" x="1891.8" y="207.8" width="112.4" height="104.9"/>
        <path class="cls-3" d="M2004.2,313.8h-112.4c-.6,0-1-.4-1-1v-104.9c0-.6.4-1,1-1h112.4c.6,0,1,.4,1,1v104.9c0,.6-.4,1-1,1ZM1892.8,311.8h110.4v-102.9h-110.4v102.9Z"/>
      </g>
      <path class="cls-3" d="M1387.5,1004.7c-.2,0-.5,0-.7-.3-.4-.4-.4-1,0-1.4.8-.9,1.6-1.8,2.3-2.7.4-.4,1-.5,1.4-.1.4.4.5,1,.1,1.4-.8.9-1.5,1.8-2.4,2.8-.2.2-.5.3-.7.3Z"/>
      <path class="cls-3" d="M1490.8,668.2s0,0-.1,0c0,0-2-.2-5.2-.2h0c-.5,0-1-.4-1-1,0-.6.4-1,1-1,3.3,0,5.3.2,5.4.2.5,0,.9.6.9,1.1,0,.5-.5.9-1,.9Z"/>
      <g>
        <path class="cls-1" d="M1524,370.8h1c52,0,94.3,42.2,94.3,94.3v58.9c0,14.1-11.4,25.5-25.5,25.5h-138.6c-14.1,0-25.5-11.4-25.5-25.5v-58.9c0-52,42.2-94.3,94.3-94.3Z" transform="translate(131.6 -311.7) rotate(12.2)"/>
        <path class="cls-3" d="M1578.8,563.7c-1.9,0-3.8-.2-5.6-.6l-135.5-29.3c-6.9-1.5-12.8-5.6-16.7-11.5-3.8-5.9-5.1-13-3.6-19.9l12.5-57.6c11.1-51.3,61.9-84.1,113.2-73l1,.2c24.9,5.4,46.2,20.1,59.9,41.5,13.8,21.4,18.4,46.9,13,71.7l-12.5,57.6c-1.5,6.9-5.6,12.8-11.5,16.7-4.3,2.8-9.3,4.2-14.3,4.2ZM1573.6,561.1c6.4,1.4,12.9.2,18.4-3.4,5.5-3.5,9.3-9,10.7-15.4l12.5-57.6c5.3-24.4.7-49.3-12.8-70.2-13.5-20.9-34.3-35.4-58.7-40.6l-1-.2c-50.3-10.9-100,21.2-110.9,71.5l-12.5,57.6c-2.9,13.2,5.6,26.2,18.8,29.1l135.5,29.3Z"/>
      </g>
      <g>
        <ellipse class="cls-1" cx="1506.2" cy="519.9" rx="55.7" ry="171.9" transform="translate(894.4 1991.2) rotate(-86.5)"/>
        <path class="cls-3" d="M1535.3,577.5c-10.7,0-21.5-.3-32.6-1-45.9-2.8-88.8-11.3-120.6-23.8-32.2-12.7-49.4-28.1-48.4-43.4s19.9-28.5,53.4-37.1c33.1-8.5,76.7-11.7,122.6-8.8,45.9,2.8,88.8,11.3,120.6,23.8,32.2,12.7,49.4,28.1,48.4,43.4h0c-.9,15.3-19.9,28.5-53.4,37.1-25.2,6.5-56.4,9.8-90,9.8ZM1477.1,464.3c-33.5,0-64.5,3.3-89.5,9.8-32.6,8.4-51,20.9-51.9,35.3-.9,14.4,15.9,29.1,47.2,41.4,31.7,12.5,74.3,20.9,120,23.7,45.7,2.8,89-.3,122-8.8,32.6-8.4,51-20.9,51.9-35.3s-15.9-29.1-47.2-41.4c-31.7-12.5-74.3-20.9-120-23.7-11-.7-21.9-1-32.5-1ZM1677.7,530.5h0,0Z"/>
      </g>
      <circle class="cls-3" cx="1589.2" cy="552.6" r="31.2"/>
      <circle class="cls-3" cx="1589.2" cy="592.8" r="19.7"/>
      <path class="cls-3" d="M1401.9,524.8s-18.3,26.3,5.4,36.3c17.1,7.2,43.9-14.1,43.9-14.1l-7.8-23.9-41.4,1.6Z"/>
      <g>
        <path class="cls-1" d="M1636.1,637.8c-3.8,16.9-18.6,66.1-60.6,69.5-34.5,2.8-47.1-34.1-50.2-45.4-1.6,1.2-3.3,2.4-5.1,3.8-10.6,7.8-24.4,7.8-34.7,1.3-4-2.5-7.6-6.1-10.2-10.5-24.2-41.3-62.8-113.1-46.8-126,1-1.1,2.1-2.2,3.1-3.3,1.9-1.9,3.8-3.7,5.8-5.5,0,0,0,0,0,0,0,0,0,0,0,0h0c13.3-11.9,102.4-24.2,103.8-21.6l13.3,24.9c1.9,3.5,6.5,4.5,9.6,1.9,2.7-2.1,6.2-4.1,10.6-4.4,3.1-.2,6.7.4,10.5,2.5,1.4.8,2.6,1.6,3.7,2.4,0,0,0,0,0,0,1.5,1.2,2.8,2.4,3.8,3.8.2.2.3.4.5.6,0,0,0,0,0,0,7.9,11.3-1.1,26.3-6.2,33.2-1.7,2.3-1.6,5.4.1,7.7l46.4,59.2h0c1.8,1.2,2.8,3.5,2.3,5.8Z"/>
        <path class="cls-3" d="M1571.8,708.5c-31.1,0-43.5-32.5-47.1-44.9l-3.9,2.9c-10.6,7.8-24.7,8.4-35.8,1.4-4.3-2.7-7.9-6.4-10.5-10.8-54.1-92.3-55.2-120.2-46.6-127.2,1-1.1,2-2.2,3.1-3.2,1.9-1.9,3.9-3.8,5.8-5.5,0,0,0,0,0,0,0,0,0,0,.1-.1,12.8-11.3,95.4-23.5,104-22,.5,0,1,.2,1.3.8l13.3,24.9c.8,1.4,2.1,2.4,3.6,2.7,1.6.3,3.2,0,4.5-1.1,3.5-2.8,7.2-4.4,11.1-4.6,3.6-.3,7.4.6,11.1,2.7,1.5.8,2.7,1.6,3.9,2.5,1.6,1.3,3,2.6,4,4,.2.2.3.4.5.6,0,0,0,0,0,0,3.5,5,7.3,16-6.2,34.3-1.4,1.9-1.4,4.6.1,6.5l46.3,59.1c2.1,1.5,3.1,4.2,2.5,6.8h0c-3.5,15.6-18.5,66.8-61.5,70.3-1.3.1-2.5.2-3.7.2ZM1525.3,660.9c.1,0,.2,0,.3,0,.3.1.6.4.6.7,3,11.2,15.5,47.4,49.1,44.7,41.7-3.4,56.3-53.4,59.7-68.7.4-1.8-.3-3.7-1.9-4.8-.1,0-.2-.2-.3-.3l-46.3-59.1c-2-2.6-2.1-6.2-.2-8.9,12.7-17.3,9.3-27.5,6.2-32h0s0,0,0-.1c-.1-.2-.3-.3-.4-.5-1-1.3-2.2-2.5-3.6-3.6,0,0,0,0,0,0-1-.8-2.2-1.6-3.6-2.3-3.4-1.8-6.7-2.7-10-2.4-3.5.2-6.9,1.7-10,4.2-1.7,1.4-4,1.9-6.1,1.5-2.2-.4-4-1.8-5-3.7l-13.2-24.7c-2.8-.6-23.5,1.5-48,5.9-29.1,5.2-48.8,10.9-54.3,15.7,0,0,0,0,0,0,0,0,0,0-.1,0-1.9,1.7-3.8,3.5-5.7,5.4-1.1,1.1-2.1,2.2-3.1,3.2,0,0,0,0-.1.1-11.3,9,5.9,54.5,47,124.7,2.5,4.2,5.8,7.6,9.8,10.2,10.5,6.6,23.7,6.1,33.6-1.3l5.1-3.7c.2-.1.4-.2.6-.2ZM1636.1,637.8h0,0Z"/>
      </g>
      <path class="cls-3" d="M1524.5,662.8s0,0,0,0c-.6,0-1-.5-.9-1,0-.5.4-.9.8-.9.3-.1,2-1,9.8-6.8,7.7-5.8,17-14.4,27.6-25.8.4-.4,1-.4,1.4,0,.4.4.4,1,0,1.4-10.7,11.5-20.1,20.3-27.9,26.1-9.1,6.8-10.4,7.1-10.8,7.1Z"/>
      <path class="cls-3" d="M1565.7,690c-.3,0-.7-.2-.9-.5-.8-1.4-2.4-2.4-3.9-3.3-.7-.4-1.3-.7-2.1-1.1-5.4-2.8-12-6.2-13.5-17.3-1.3-10.1-6.4-12.1-10.6-12-.5,0-1-.4-1-1,0-.6.4-1,1-1,4-.1,11,1.6,12.6,13.7,1.3,10,7.2,13.1,12.4,15.8.7.4,1.4.7,2.1,1.1,1.8,1,3.6,2.2,4.7,4,.3.5.1,1.1-.4,1.4-.2,0-.3.1-.5.1Z"/>
      <path class="cls-3" d="M1574.1,562.6c-.4,0-.8-.2-.9-.6-6.6-15.8,4.9-26.8,5-26.9.4-.4,1-.4,1.4,0,.4.4.4,1,0,1.4-.4.4-10.6,10.2-4.5,24.6.2.5,0,1.1-.5,1.3-.1,0-.3,0-.4,0Z"/>
      <path class="cls-3" d="M1613.5,529.4c-3.3,3.8-18.8,3.4-20,1.8,0,0,0,0,0,0-.3-.4-.4-.6-.4-.6-1.3-1.5-2.5-2.7-3.8-3.7,0,0,0,0,0,0-5.1-4.3-10-5.5-14.3-5-3.6.4-6.8,2-9.3,3.8-3.5,2.5-6.2,5.9-7.9,9.8-3.1,7.5-7.2,13.2-15.7,12.6-12-.9-10.2-17.1-10-18.3-.1.6-1.6,6.1-5.9,5.3-4.4-.8-1.9-8.1-1.7-8.6-.3.5-15.7,22-39.7,17.3-17-3.4-14-19.1-14-19.1,0,0-4.4,11.1-12,8.5-4.6-1.6-4.2-8.8-4.1-9.1-.2.4-6.8,17.9-16.1,20s-11.8-14.3-11.8-14.3c0,0-18,23.5-25.9,15.5-13.9-14,18.6-39.2,18.6-39.2,0,0,19-13.3,64.4-14.1,9.3-.2,19.6.2,31.1,1.5,8.7.9,16.9,2.1,24.4,3.4,35.5,6.1,57.4,13.5,57.4,13.5,0,0,25.9,9,17.2,19.3Z"/>
      <path class="cls-3" d="M1598.8,722.6c-.4,0-.8-.2-.9-.7-.2-.5,0-1.1.6-1.3,44.9-16.7,51.4-70.4,51.5-70.9,0-.5.6-.9,1.1-.9.5,0,.9.6.9,1.1,0,.6-6.7,55.5-52.7,72.6-.1,0-.2,0-.3,0Z"/>
      <path class="cls-3" d="M1549.3,719.1c-.1,0-.3,0-.4,0-28.9-12.1-34.3-41.7-34.3-42,0-.5.3-1.1.8-1.2.5,0,1.1.3,1.2.8,0,.3,5.3,28.8,33.1,40.5.5.2.8.8.5,1.3-.2.4-.5.6-.9.6Z"/>
      <path class="cls-3" d="M1543.2,457.6c0,0-.1,0-.2,0-52.6-10.5-103.9-4-104.4-3.9-.6,0-1-.3-1.1-.9,0-.5.3-1,.9-1.1.5,0,52.1-6.7,105.1,3.9.5.1.9.6.8,1.2,0,.5-.5.8-1,.8Z"/>
      <path class="cls-3" d="M1655.9,548.2c-.3,0-.7-.2-.9-.5-.3-.5-.1-1.1.3-1.4,0,0,9.6-6,10.6-15.1.6-5.6-2.1-11.4-8.1-17.1-.4-.4-.4-1,0-1.4.4-.4,1-.4,1.4,0,6.5,6.2,9.4,12.5,8.7,18.8-1.1,10.1-11.1,16.3-11.5,16.6-.2,0-.3.1-.5.1Z"/>
      <path class="cls-3" d="M1346.1,517.4c-.4,0-.8-.3-1-.7,0-.2-1.6-5.5,2.8-12.5,5.8-9.3,22.4-21.9,68-29.4.5,0,1.1.3,1.1.8,0,.5-.3,1.1-.8,1.1-44.9,7.3-61,19.5-66.6,28.5-3.9,6.3-2.6,10.8-2.6,10.9.2.5-.1,1.1-.7,1.2,0,0-.2,0-.3,0Z"/>
      <path class="cls-3" d="M1545.9,665.3c9.5-12.1,17.8-26.7,25.5-42.7.8-1.6-1.3-3-2.5-1.7-13.1,13.9-26,28.2-34.2,34,0,0,3.3-.9,7.3,2.7,3.3,3,3.9,7.7,3.9,7.7Z"/>
      <path class="cls-3" d="M1468.1,612.9c-.2,0-.4,0-.5,0-2-.2-3.6-1.4-4.9-3.5-1.1-1.9-1.3-3.6-.5-5.2,1.3-2.6,4.9-3.7,6.9-4.2l-8.7-19.5c-.2-.5,0-1.1.5-1.3.5-.2,1.1,0,1.3.5l9.2,20.7c.1.3.1.6,0,.9-.2.3-.4.5-.7.5-1.5.2-5.6,1.2-6.7,3.3-.4.9-.3,2,.5,3.3.9,1.6,2,2.4,3.4,2.6,3.3.3,6.9-3.8,6.9-3.8.4-.4,1-.5,1.4,0,.4.4.5,1,0,1.4-.2.2-4,4.5-8.1,4.5Z"/>
      <path class="cls-3" d="M1477.9,621.4c-.4,0-.8-.3-1-.7-.1-.5.2-1.1.7-1.2.6-.2,15.3-4.2,12.2-19.4-.1-.5.2-1.1.8-1.2.5-.1,1.1.2,1.2.8,3.5,17-13.5,21.6-13.7,21.7,0,0-.2,0-.3,0Z"/>
      <circle class="cls-3" cx="1454.5" cy="590" r="4.6"/>
      <circle class="cls-3" cx="1487.3" cy="577.7" r="4.6"/>
      <rect class="cls-3" x="1471.5" y="548.8" width="29.9" height="11.3" rx="5.6" ry="5.6"/>
      <rect class="cls-3" x="1425.5" y="564.8" width="29.9" height="11.3" rx="5.6" ry="5.6" transform="translate(18.5 1185.6) rotate(-45)"/>
      <path class="cls-3" d="M1572.6,579.5c-2.3,0-4.3-1-6-3.1-.4-.4-.3-1.1.1-1.4.4-.4,1.1-.3,1.4.1,1.4,1.6,2.9,2.4,4.6,2.4,4.9-.1,9.8-6.6,9.9-6.6.3-.4,1-.5,1.4-.2.4.3.5,1,.2,1.4-.2.3-5.6,7.3-11.4,7.4,0,0-.1,0-.2,0Z"/>
      <circle class="cls-2" cx="1521.4" cy="591.5" r="18.6"/>
      <circle class="cls-2" cx="1449.9" cy="626.8" r="18.6"/>
      <g>
        <path class="cls-1" d="M1461.3,1055.6s-13-2.5-22.7,8c-6.8,7.3-8.2,19.1-8.5,25.2l-40.3-87.8c32.9-39.6,36.5-110.6,35.1-173.7,4.4.2,27,1.5,40.7,15.2,14,64.6,23,149.7-4.3,213.1Z"/>
        <path class="cls-3" d="M1430.1,1089.8c-.4,0-.7-.2-.9-.6l-40.3-87.8c-.2-.3-.1-.8.1-1.1,33.5-40.4,36.2-113.7,34.8-173.1,0-.3.1-.5.3-.7.2-.2.5-.3.7-.3,4.5.2,27.4,1.6,41.4,15.5.1.1.2.3.3.5,13.4,61.8,23.5,149.1-4.4,213.7-.2.4-.6.7-1.1.6-.1,0-12.6-2.3-21.8,7.7-6.5,7-7.9,18.4-8.2,24.6,0,.5-.4.8-.8.9,0,0-.1,0-.2,0ZM1391,1001.1l38.4,83.7c.7-6.6,2.7-15.8,8.4-21.9,8.7-9.4,19.8-8.8,22.8-8.4,27.2-64,17.2-150.2,4-211.5-12.5-12.3-32.7-14.4-38.8-14.7,1.3,59.3-1.6,132.1-34.9,172.8Z"/>
      </g>
      <path class="cls-3" d="M1465.6,843.5c-.5,0-.9-.3-1-.8-11.7-53.9-27-94.1-27.1-94.5-.2-.5,0-1.1.6-1.3s1.1,0,1.3.6c.2.4,15.5,40.7,27.2,94.8.1.5-.2,1.1-.8,1.2,0,0-.1,0-.2,0Z"/>
      <g>
        <path class="cls-3" d="M1691.7,1274.5c-82.6,26.5-374.4,24.7-432.8.4-64.7-26.8-61.4-117.7,2.9-150.3,20.6-10.5,59.7-14.2,103.3-14.5l66.7-17.4c0,0,.1,0,.2,0,20.5-3,214.1-28.4,285.3,65.8,38.3,50.6,6.8,105.7-25.5,116.1Z"/>
        <path class="cls-3" d="M1470.2,1294.7c-1.3,0-2.7,0-4,0-99-.2-180.5-7.6-207.7-18.9-28.6-11.8-46.3-37.5-47.5-68.5-1.3-34.6,18.4-67.5,50.3-83.6,18.4-9.4,53.3-14.3,103.6-14.6l66.5-17.4s.2,0,.2,0c21.8-3.2,214.8-28.3,286.3,66.2,17,22.4,22,48.3,14.2,72.9-6.7,21.2-22.9,39.1-40.2,44.7l-.3-1,.3,1c-29.2,9.4-102.8,19.3-221.8,19.3ZM1511.5,1088.3c-40.3,0-71.9,4.2-79.5,5.3,0,0-.1,0-.1,0l-66.6,17.4c0,0-.2,0-.2,0-50.1.3-84.7,5.1-102.9,14.4-31.2,15.8-50.5,47.9-49.2,81.8,1.2,30.2,18.5,55.2,46.3,66.7,27,11.2,108.2,18.5,207,18.7,1.3,0,2.7,0,4,0,118.8,0,192.1-9.9,221.2-19.2,16.8-5.4,32.4-22.8,38.9-43.4,7.6-24,2.6-49.2-13.9-71.1-16.2-21.4-40.2-38.3-71.3-50.1-25.3-9.6-55.5-16-89.7-18.8-15.3-1.3-30.1-1.8-43.9-1.8Z"/>
      </g>
      <path class="cls-3" d="M1715.3,832c-.2,0-.4,0-.6-.2-.4-.3-.5-1-.2-1.4l.6-.8c.3-.4,1-.5,1.4-.2.4.3.5,1,.2,1.4l-.6.8c-.2.3-.5.4-.8.4Z"/>
      <path class="cls-3" d="M1841.1,765.9c-.5,0-1-.4-1-.9,0-.6.4-1,.9-1.1.2,0,.3,0,.3,0,.6,0,1,.5,1,1,0,.5-.4,1-1,1h-.1s0,0,0,0Z"/>
      <path class="cls-3" d="M1330,970.3c3.5-51.5,40.5-98.2,89.4-115,10.7-3.8,22.5,1.9,26.3,12.6,4.4,12-3.8,25.4-16.4,27.2-9.1,1.4-18.3,4.3-27,8.6-27.2,13.6-48.4,38.7-56.1,69-2.6,9.7-16.6,7.6-16.2-2.4h0Z"/>
      <path class="cls-3" d="M1606,695.4c-.3,0-.6-.2-.8-.4-.3-.5-.2-1.1.3-1.4,18.2-12.6,28.4-50.6,28.5-51,.1-.5.7-.9,1.2-.7.5.1.9.7.7,1.2,0,0-2.6,9.8-7.5,21.1-6.6,15.1-13.9,25.6-21.8,31.1-.2.1-.4.2-.6.2Z"/>
      <path class="cls-3" d="M1572.1,708.8c-5.7,0-11.1-1.2-16.2-3.6-20-9.3-28.4-33.2-28.8-34.2-.2-.5,0-1.1.6-1.3.5-.2,1.1,0,1.3.6,0,.2,8.5,24.1,27.7,33,9.6,4.5,20.4,4.5,32.1,0,.5-.2,1.1,0,1.3.6.2.5,0,1.1-.6,1.3-6,2.3-11.9,3.5-17.5,3.5Z"/>
      <g>
        <path class="cls-1" d="M1556.3,1110.1v14.4h-377.1c-9.1,0-17.5-4.7-22.3-12.3l-128.8-204.8c-4.4-7,.6-16.2,8.9-16.3l291.5-3.5c5.7,0,10.9,3.2,13.3,8.4l48.1,104.9,40.3,87.8,1.7,3.8,3.9,8.5h111.6c5,0,9,4,9,9Z"/>
        <path class="cls-3" d="M1556.3,1125.6h-377.1c-9.5,0-18.1-4.8-23.2-12.8l-128.8-204.8c-2.3-3.6-2.4-8-.4-11.8,2-3.7,5.8-6,10.1-6.1l291.5-3.5c0,0,.1,0,.2,0,6,0,11.5,3.5,14,9l48.1,104.9,45.6,99.6h111c5.5,0,10,4.5,10,10v14.4c0,.6-.4,1-1,1ZM1328.6,888.6s0,0-.1,0l-291.5,3.5c-3.5,0-6.7,1.9-8.4,5-1.7,3.1-1.6,6.7.3,9.7l128.8,204.8c4.7,7.4,12.7,11.9,21.5,11.9h376.1v-13.4c0-4.4-3.6-8-8-8h-111.6c-.4,0-.7-.2-.9-.6l-94-205.1c-2.2-4.8-7-7.8-12.2-7.8Z"/>
      </g>
      <g>
        <path class="cls-3" d="M541.4,1314.9h-197.1v-1.9c0-55.6,45.1-100.7,100.7-100.7h1.1c54.5,0,98.7,44.2,98.7,98.7v.6c0,1.8-1.5,3.3-3.3,3.3Z"/>
        <path class="cls-3" d="M541.4,1315.9h-197.1c-.6,0-1-.4-1-1v-1.9c0-56.1,45.6-101.7,101.7-101.7h1.1c55,0,99.7,44.7,99.7,99.7v.6c0,2.4-1.9,4.3-4.3,4.3ZM345.2,1313.9h196.1c1.3,0,2.3-1,2.3-2.3v-.6c0-53.9-43.8-97.7-97.7-97.7h-1.1c-55,0-99.7,44.7-99.7,99.7v.9Z"/>
      </g>
      <path class="cls-3" d="M1569.6,1125.6s0,0-.1,0c-1.1-.1-113.4-15-204.4-14.5h0c-.5,0-1-.4-1-1,0-.6.4-1,1-1,91.3-.6,203.6,14.3,204.7,14.5.5,0,.9.6.9,1.1,0,.5-.5.9-1,.9Z"/>
      <g>
        <ellipse class="cls-1" cx="1819.5" cy="676.6" rx="30" ry="15.6" transform="translate(-112.9 861.2) rotate(-25.9)"/>
        <path class="cls-3" d="M1806,696.8c-.3,0-.6,0-.9,0-6.8-.2-11.6-2.5-13.6-6.6s-.8-9.3,3.2-14.8c3.9-5.2,10.1-10.1,17.5-13.7,7.4-3.6,15-5.4,21.5-5.2,6.8.2,11.6,2.5,13.6,6.6,2,4.1.8,9.3-3.2,14.8-3.9,5.2-10.1,10.1-17.5,13.7-7,3.4-14.3,5.3-20.7,5.3ZM1832.9,658.4c-6,0-13,1.8-19.8,5.1-7.1,3.4-13,8.1-16.7,13.1-3.6,4.8-4.6,9.3-3,12.7h0c1.6,3.4,5.8,5.4,11.8,5.5,6.2.2,13.5-1.6,20.6-5s13-8.1,16.7-13.1c3.6-4.8,4.6-9.3,3-12.7-1.6-3.4-5.8-5.4-11.8-5.5-.3,0-.5,0-.8,0Z"/>
      </g>
      <g>
        <path class="cls-1" d="M1291.4,459.4c20.6,0,37.3-32.2,37.3-71.9,0-39.7-16.7-71.9-37.3-71.9-20.6,0-37.3,32.2-37.3,71.9,0,39.7,16.7,71.9,37.3,71.9Z"/>
        <path class="cls-3" d="M1291.4,460.4c-21.1,0-38.3-32.7-38.3-72.9s17.2-72.9,38.3-72.9,38.3,32.7,38.3,72.9-17.2,72.9-38.3,72.9ZM1291.4,316.7c-20,0-36.3,31.8-36.3,70.9s16.3,70.9,36.3,70.9,36.3-31.8,36.3-70.9-16.3-70.9-36.3-70.9Z"/>
      </g>
      <g>
        <ellipse class="cls-1" cx="2105.9" cy="492" rx="62.6" ry="32.5" transform="translate(154.9 1424.9) rotate(-38.7)"/>
        <path class="cls-3" d="M2075.9,539.6c-8.4,0-15.4-2.5-19.6-7.8h0c-11.5-14.4,1.3-44,28.7-65.9,13.2-10.5,27.7-17.8,40.9-20.4,13.4-2.7,24-.3,29.6,6.8,11.5,14.4-1.3,44-28.7,65.9-17.3,13.9-36.4,21.4-50.9,21.4ZM2057.9,530.5c10.9,13.5,41.2,7.3,67.7-13.9,26.5-21.2,39.2-49.5,28.4-63.1-5.2-6.5-15-8.6-27.7-6.1-12.9,2.6-27.1,9.7-40,20-26.5,21.2-39.2,49.5-28.4,63.1h0Z"/>
      </g>
      <g>
        <ellipse class="cls-1" cx="1418.5" cy="929.5" rx="11.6" ry="6"/>
        <path class="cls-3" d="M1418.5,936.5c-7.1,0-12.6-3.1-12.6-7s5.5-7,12.6-7,12.6,3.1,12.6,7-5.5,7-12.6,7ZM1418.5,924.5c-6.3,0-10.6,2.6-10.6,5s4.3,5,10.6,5,10.6-2.6,10.6-5-4.3-5-10.6-5Z"/>
      </g>
      <g>
        <path class="cls-1" d="M1407.6,950.4c6.9,4.3,13.3,11.4,16.1,23.1,2,8.3,9.5,14,18,14h0c17.8,0,25.5-22.7,11.2-33.4s-22.4-11.9-42.8-12.3c-4.7,0-6.6,6-2.6,8.5Z"/>
        <path class="cls-3" d="M1441.8,988.5c-9.1,0-16.9-6.1-19-14.8-2.4-10-7.7-17.5-15.7-22.5h0c-2.2-1.4-3.1-3.8-2.4-6.3.7-2.5,2.8-4,5.4-4s0,0,.1,0c18.3.4,32.9,4.6,43.4,12.5,6.8,5.2,9.5,13.7,6.8,21.8-2.7,8.1-10,13.4-18.6,13.4ZM1410.1,942.8c-2,0-3.1,1.4-3.5,2.6s-.2,3,1.5,4.1h0c8.5,5.3,14,13.3,16.6,23.7,1.9,7.8,8.9,13.3,17.1,13.3s14.2-4.7,16.7-12c2.4-7.3,0-15-6.1-19.6-10.1-7.7-24.3-11.7-42.2-12.1,0,0,0,0,0,0Z"/>
      </g>
      <path class="cls-3" d="M1694.6,723.9c74.2,10.6,149.8-20.7,204.1-70.6,28.1-25.3,49.4-56.4,68-89.2,26.2-45.5,49.8-94.3,88.6-130.9,22.9-21.9,50.6-40.1,82-47.9,10.9-2.8,22.1-4.2,33.5-4.3,11.5-.4,21.1,8.8,21.2,20.3.1,11.4-9,20.7-20.3,20.8-8.9-.8-17.9-1.2-26.8.2-47.1,7.5-84.9,42.9-112.2,81-23.7,32.8-44.3,72.3-67.7,105.5-15.1,21.7-32.7,42.1-52.5,59.7-17.3,15.5-36.3,29.2-56.3,40.8-49.4,29.1-104.7,47-161.5,55.5-11.3,1.8-22-5.9-23.8-17.2-2.5-13.7,10.1-26.2,23.7-23.9h0Z"/>
      <path class="cls-3" d="M1251.4,821.1c46.8-17.1,65.5-72.9,63.2-119.5-.8-24.7-7.7-48.8-16.2-71.9-21.5-57.4-55.3-110.2-72.2-169.5-23.2-80.6-19.7-168,7.8-247.1,10.8-31.1,25.4-61.2,43.4-89.3,6.1-9.5,18.8-12.3,28.4-6.2,10.2,6.5,12.6,20.6,5,30.1-66,83.3-89.9,198-64.7,301.2,17.3,73.1,62.7,136.2,81.2,209.1,18.2,70.3,6.2,154.6-56.4,199.5-9.2,6.9-22.2,5-29.1-4.2-8.5-10.9-3.3-27.7,9.7-32.1h0Z"/>
      <g>
        <path class="cls-1" d="M1852.5,1109.8c-49.2,44-171.6-30.7-262.9-32,0,0-10.6,10.7-30.2,10.8-17.3,0-39.5-17.7-44.3-21.7-6.7,8.7-4.2,20.9-7.5,26.5-2.6,4.6-13.2,4-14.9-1.8-4.3-14.5.3-30.4,2.8-37.3-11.4,12.7-20.4,35.8-20.4,35.8,0,0-4.4,5.6-12.2,4.3-7.8-1.3-7.8-7.3-7.8-7.3,0,0-6.1,6.6-12.1,3.5-6.1-3-5.8-8-5.8-11.1,0-1.5,0-2.9.2-4.4-12.7-3-9.3-21-6.6-27.2,5.4-12.4,23.3-34.4,59-43.6,38.8-10,90.1,13,90.1,13,60.2-14.4,110.6-19.5,181.8-.8,1.6-54.7-23.5-130.9-45.6-186.4,47.4-61.5,120.9-65.1,125.2-65.3,47.5,125.8,66.5,295.5,11.3,344.9Z"/>
        <path class="cls-3" d="M1808.8,1124.6c-29.1,0-65-10.6-102.3-21.5-39.6-11.6-80.5-23.7-116.6-24.3-1.9,1.8-12.4,10.7-30.6,10.8h0c-4.4,0-20.3-1.6-44.1-21.3-3.3,4.9-4,10.7-4.6,15.9-.4,3.9-.8,7.2-2.2,9.7-1.7,2.9-5.7,3.8-9,3.4-3.9-.5-6.8-2.5-7.7-5.4-3.5-11.8-1.3-24.3,1.2-32.8-9.6,12.7-16.8,31.1-16.9,31.3,0,0,0,.2-.1.3-.2.2-4.8,6-13.1,4.7-5.7-.9-7.6-4.2-8.3-6.4-2.3,1.9-7,4.9-11.9,2.5-6.3-3.2-6.4-8.4-6.4-11.6v-.4c0-1.3,0-2.5,0-3.6-3.3-1-5.7-3-7.3-6.1-3.5-7-1.4-17.4.8-22.3,6.6-15,26.1-35.5,59.7-44.2,20.2-5.2,43.8-1.4,60.1,2.8,16,4.1,28.3,9.3,30.3,10.2,59.4-14.2,110.4-19.2,180.7-1,1.2-54.8-24-130.6-45.6-184.7-.1-.3,0-.7.1-1,47.9-62.1,122.8-65.6,126-65.7.5,0,.8.2,1,.6,48.3,127.9,66.3,296.5,11.1,346h0c-11.4,10.2-26.6,14.1-44.3,14.1ZM1589.6,1076.8h0c36.5.5,77.7,12.6,117.5,24.4,59.4,17.5,115.5,34,144.7,7.9,25.1-22.4,36.6-73.2,32.5-143-3.7-63.1-19.7-135.9-43.9-200.1-8.3.5-78,6-123.4,64.4,21.7,54.7,47.1,131.2,45.4,186.2,0,.3-.2.6-.4.8-.2.2-.6.2-.9.2-71-18.6-120.2-13.8-181.3.8-.2,0-.4,0-.6,0-.5-.2-51.4-22.8-89.4-13-32.8,8.5-51.9,28.5-58.3,43-1.7,3.9-4.1,14-.8,20.6,1.4,2.8,3.7,4.5,6.8,5.3.5.1.8.6.8,1.1-.1,1.3-.2,2.7-.1,4.3v.4c0,3,0,7.2,5.3,9.8,5.3,2.7,10.9-3.3,10.9-3.3.3-.3.7-.4,1.1-.3.4.2.6.5.6.9,0,.2.1,5.2,7,6.3,6.6,1.1,10.5-3.1,11.2-3.8.9-2.2,9.5-23.6,20.6-35.9.3-.4.8-.4,1.3-.2.4.2.6.7.4,1.2-2.3,6.2-7.1,22.3-2.8,36.6.7,2.5,3.6,3.7,6,4,3.1.4,6-.6,7.1-2.5,1.2-2.1,1.5-5.2,2-8.9.6-5.8,1.4-12.3,5.6-17.7.2-.2.4-.4.7-.4.3,0,.5,0,.8.2,4.3,3.6,26.5,21.5,43.6,21.5h0c18.9,0,29.4-10.4,29.5-10.5.2-.2.4-.3.7-.3Z"/>
      </g>
      <g>
        <path class="cls-2" d="M1029,316.5c-35.7,0-64.7-29-64.7-64.7s29-64.7,64.7-64.7,64.7,29,64.7,64.7-29,64.7-64.7,64.7ZM1029,207.5c-24.4,0-44.2,19.8-44.2,44.2s19.8,44.2,44.2,44.2,44.2-19.8,44.2-44.2-19.8-44.2-44.2-44.2Z"/>
        <path class="cls-3" d="M1029,317.5c-36.2,0-65.7-29.5-65.7-65.7s29.5-65.7,65.7-65.7,65.7,29.5,65.7,65.7-29.5,65.7-65.7,65.7ZM1029,188.1c-35.1,0-63.7,28.6-63.7,63.7s28.6,63.7,63.7,63.7,63.7-28.6,63.7-63.7-28.6-63.7-63.7-63.7ZM1029,297c-24.9,0-45.2-20.3-45.2-45.2s20.3-45.2,45.2-45.2,45.2,20.3,45.2,45.2-20.3,45.2-45.2,45.2ZM1029,208.5c-23.8,0-43.2,19.4-43.2,43.2s19.4,43.2,43.2,43.2,43.2-19.4,43.2-43.2-19.4-43.2-43.2-43.2Z"/>
      </g>
      <path class="cls-3" d="M1715.9,831.2c-.4,0-.8-.2-.9-.6-16.6-41.7-31.5-72.1-31.7-72.4-.2-.5,0-1.1.5-1.3.5-.2,1.1,0,1.3.5.2.3,15.2,30.8,31.8,72.6.2.5,0,1.1-.6,1.3-.1,0-.2,0-.4,0Z"/>
      <path class="cls-3" d="M1495.5,1055.4c-.2,0-.5,0-.7-.3-.4-.4-.4-1,0-1.4,2.1-2.3,4.2-4.2,6.2-5.6.5-.3,1.1-.2,1.4.3.3.5.2,1.1-.3,1.4-1.9,1.3-3.8,3-5.8,5.2-.2.2-.5.3-.7.3Z"/>
      <path class="cls-3" d="M1437.3,1076.2s0,0,0,0c-.6,0-1-.5-.9-1.1,2.6-35.3,38.5-47.9,38.8-47.9.6,0,1,.4,1,1s-.3.8-.7,1c-.9.3-34.7,12.9-37.1,46.1,0,.5-.5.9-1,.9Z"/>
      <path class="cls-3" d="M1515.1,1067.9c-.2,0-.4,0-.6-.2-.4-.3-.5-1-.2-1.4,1.8-2.3,4-4.2,6.8-5.8.5-.3,1.1,0,1.4.4.3.5,0,1.1-.4,1.4-2.5,1.4-4.5,3.1-6.1,5.2-.2.3-.5.4-.8.4Z"/>
      <path class="cls-3" d="M1456.2,1082.6s0,0,0,0c-.6,0-1-.5-1-1,1.3-28.5,27.7-43.9,28-44,.5-.3,1.1-.1,1.4.4.3.5.1,1.1-.4,1.4-.3.1-25.8,15-27,42.4,0,.5-.5,1-1,1Z"/>
      <g>
        <path class="cls-1" d="M1696.8,446.1c-4.2,6.7-10.4,11.9-15.1,15.2-3.7,2.5-8.7,1.1-10.6-2.9l-6.1-12.9-13.1-27.9-3.2-6.8c-1.9-4,.3-8.8,4.6-10,.4-.1.8-.2,1.2-.3,7.8-2,19.2-3.5,29.1.9,5.4,2.4,10.3,6.6,14,13.5.3.6.6,1.1.8,1.7,5.5,11.8,3.3,21.7-1.6,29.5Z"/>
        <path class="cls-3" d="M1677.6,463.5c-.7,0-1.4,0-2.1-.3-2.3-.6-4.3-2.3-5.3-4.5l-22.3-47.6c-1-2.2-1-4.7,0-6.9,1-2.2,2.9-3.8,5.2-4.5.3,0,.5-.1.8-.2h.4c8-2.2,19.6-3.7,29.7.9,6.1,2.8,11,7.5,14.4,13.9.3.6.6,1.2.9,1.7,4.9,10.6,4.4,20.8-1.6,30.5h0c-4.4,7-10.8,12.3-15.4,15.5-1.4.9-3,1.4-4.6,1.4ZM1668.9,399.4c-5.2,0-10.2.9-14.2,1.9h-.4c-.3.2-.5.2-.8.3-1.7.5-3.2,1.7-3.9,3.4-.8,1.7-.8,3.6,0,5.2l22.3,47.6c.8,1.7,2.2,2.9,4,3.4,1.8.5,3.6.2,5.1-.9,4.5-3.1,10.7-8.2,14.9-14.9,5.6-9.1,6.2-18.7,1.5-28.6-.3-.6-.5-1.1-.8-1.7-3.2-6.1-7.8-10.5-13.5-13-4.6-2.1-9.5-2.8-14.2-2.8ZM1696.8,446.1h0,0Z"/>
      </g>
      <path class="cls-3" d="M2250.7,1316h-69.2c-15.8,0-30-9.9-35.5-24.7l-90-243c0-.2,0-.4,0-.6l14.5-46c.1-.4.5-.7.9-.7.4,0,.8.3,1,.7l97.1,260.2c5.2,14,18.7,23.3,33.6,23.3h47.7c8.5,0,15.4,6.9,15.4,15.4s-6.9,15.4-15.4,15.4ZM2057.9,1047.9l89.9,242.7c5.2,14,18.7,23.4,33.6,23.4h69.2c7.4,0,13.4-6,13.4-13.4s-6-13.4-13.4-13.4h-47.7c-15.7,0-30-9.9-35.5-24.6l-96-257.5-13.5,42.9Z"/>
      <path class="cls-3" d="M2069.1,1315.9c-15.7,0-30-9.9-35.5-24.6l-29.5-79.1c0-.2,0-.4,0-.7l51.8-163.9c.1-.4.5-.7.9-.7h0c.4,0,.8.3.9.7l89.8,242.8c5.2,14.1,18.7,23.5,33.7,23.5h.1c.6,0,1,.4,1,1,0,.6-.5,1-1.1,1h-112.2s0,0,0,0ZM2006.1,1211.8l29.4,78.8c5.2,14,18.7,23.3,33.6,23.3h100.1c-10.7-3.6-19.5-11.9-23.5-22.9l-88.8-240.1-50.8,160.8Z"/>
      <g>
        <path class="cls-3" d="M1476.2,527.1s.1,13.5,14.4,11.9"/>
        <path class="cls-1" d="M1488.2,540.1c-3.5,0-6.4-1-8.6-2.9-4.3-3.8-4.4-9.8-4.4-10.1,0-.6.4-1,1-1h0c.5,0,1,.4,1,1,0,0,.1,5.4,3.7,8.6,2.3,2,5.5,2.8,9.5,2.3.6,0,1,.3,1.1.9s-.3,1-.9,1.1c-.9.1-1.7.2-2.5.2Z"/>
      </g>
      <rect class="cls-2" x="841.6" y="497.7" width="183.6" height="218.6"/>
      <g>
        <circle class="cls-2" cx="701.8" cy="1077.6" r="54.5"/>
        <path class="cls-3" d="M701.8,1133c-30.6,0-55.5-24.9-55.5-55.5s24.9-55.5,55.5-55.5,55.5,24.9,55.5,55.5-24.9,55.5-55.5,55.5ZM701.8,1024.1c-29.5,0-53.5,24-53.5,53.5s24,53.5,53.5,53.5,53.5-24,53.5-53.5-24-53.5-53.5-53.5Z"/>
      </g>
      <g>
        <ellipse class="cls-2" cx="1233.8" cy="1014.9" rx="29.1" ry="54.5" transform="translate(-342.1 752.9) rotate(-30)"/>
        <path class="cls-3" d="M1252.5,1065.2c-14.1,0-32.4-13.8-44.8-35.3-15.3-26.5-16-54.8-1.6-63.1,7.1-4.1,16.6-2.8,26.8,3.5,10,6.2,19.6,16.7,27,29.4,15.3,26.5,16,54.8,1.6,63.1-2.7,1.6-5.8,2.3-9,2.3ZM1215.3,966.5c-3,0-5.8.7-8.2,2.1-13.4,7.8-12.4,34.8,2.4,60.4,14.7,25.5,37.6,40,51.1,32.2,13.4-7.8,12.4-34.8-2.4-60.4h0c-7.2-12.5-16.5-22.7-26.3-28.7-6-3.7-11.6-5.6-16.6-5.6Z"/>
      </g>
      <path class="cls-3" d="M1805,1056.6c-.4,0-.7-.2-.9-.6-16.8-35.4-42.4-38.4-42.7-38.5-.5,0-1-.5-.9-1.1,0-.5.6-.9,1.1-.9,1.1.1,27,3.1,44.3,39.6.2.5,0,1.1-.5,1.3-.1,0-.3,0-.4,0Z"/>
      <path class="cls-3" d="M1431.7,1093.6c-.4,0-.8-.3-1-.7-.1-.5.2-1.1.7-1.2l3.9-1c.5-.1,1.1.2,1.2.7.1.5-.2,1.1-.7,1.2l-3.9,1c0,0-.2,0-.3,0Z"/>
      <g>
        <path class="cls-3" d="M1245.8,1134.7s15.5-26.2,133.4-24.7c117.9,1.6,199.4,17.9,199.4,17.9l-44.1,19.2-288.8-12.4Z"/>
        <path class="cls-3" d="M1534.6,1148.1s0,0,0,0l-288.8-12.4c-.4,0-.7-.2-.8-.5-.2-.3-.2-.7,0-1,.6-1.1,17.1-26.7,134.3-25.1,61,.8,112,5.6,144.1,9.5,34.8,4.2,55.4,8.3,55.6,8.4.4,0,.8.4.8.9,0,.4-.2.8-.6,1l-44.1,19.2c-.1,0-.3,0-.4,0ZM1247.9,1133.8l286.5,12.3,40.9-17.8c-16.2-3-92.5-15.9-196.1-17.2-33.3-.4-79.4,1.2-110.1,11.5-13.2,4.4-19,9-21.2,11.2Z"/>
      </g>
      <g>
        <path class="cls-3" d="M838.1,749.3h0c-20.2-6.5-31.3-28.2-24.8-48.5l19.4-60.1,26.6,42.7,46.6-19-19.4,60.1c-6.5,20.2-28.2,31.3-48.5,24.8Z"/>
        <polygon class="cls-3" points="869.4 652.6 827.7 690.3 881.1 707.5 869.4 652.6"/>
      </g>
      <path class="cls-3" d="M450.1,467.8s16.3,34.2,56.9,16.2c49.4-21.9,94.4-19.2,133.4,34.5h31.9s-13.8-41.4-68.8-50.7c-71.2-12.1-105.2,17.4-129.4,1.1l-24.1-1.1Z"/>
      <g>
        <path class="cls-2" d="M641.1,518.5h-31.9c-32.2-44.3-68.4-53.9-107.8-43.6-8.4,2.2-17,5.3-25.7,9.1-32,14.2-48.9-4-54.6-12.4,9.4-2.2,19-3.4,28.8-3.8h.1c10.4,7,21.2,5.8,35.9,3,19.5-3.6,45.7-9.9,86.3-3,55,9.3,68.8,50.7,68.8,50.7Z"/>
        <path class="cls-3" d="M641.1,519.5h-31.9c-.3,0-.6-.2-.8-.4-15.5-21.3-32.1-35-50.7-41.9-17-6.3-35.3-6.7-56-1.4-8.1,2.1-16.6,5.1-25.5,9.1-32.6,14.4-49.9-4.1-55.8-12.7-.2-.3-.2-.6-.1-.9s.4-.5.7-.6c9.5-2.2,19.3-3.5,29-3.8h.1c.2,0,.4,0,.6.2,10.1,6.9,21,5.5,35.2,2.9,1.5-.3,3.1-.6,4.7-.9,18.7-3.6,44.4-8.5,82-2.1,55,9.3,69.4,51,69.6,51.4.1.3,0,.6-.1.9s-.5.4-.8.4ZM609.8,517.5h29.9c-1.3-3.1-5.1-11.4-13.1-20.3-9.3-10.4-26.3-23.7-54.4-28.5-37.3-6.3-62.7-1.4-81.3,2.1-1.6.3-3.2.6-4.7.9-14.6,2.7-25.7,4.1-36.4-3-9,.3-18,1.5-26.9,3.4,6.4,8.6,22.8,24,52.5,10.8,9-4,17.6-7.1,25.8-9.2,43.3-11.3,78.8,3,108.5,43.6Z"/>
      </g>
      <path class="cls-3" d="M1683.5,401.3c-2.4,5.5-7.9,9.4-14.3,9.4s-12.5-4.3-14.7-10.3c7.8-2,19.2-3.5,29.1.9Z"/>
      <path class="cls-3" d="M1696.8,446.1c-8.1-.6-14.4-7.4-14.4-15.6s6.8-15.4,15.2-15.6c.3.6.6,1.1.8,1.7,5.5,11.8,3.3,21.7-1.6,29.5Z"/>
      <path class="cls-3" d="M1671.6,432.6c0,5.3-2.6,9.9-6.6,12.8l-13.1-27.9c1.3-.3,2.6-.5,4-.5,8.6,0,15.7,7,15.7,15.6Z"/>
      <g>
        <path class="cls-3" d="M1685.2,914.2c-25.7,2.8-28,5-30.7,30.7-2.8-25.7-5-28-30.7-30.7,25.7-2.8,28-5,30.7-30.7,2.8,25.7,5,28,30.7,30.7Z"/>
        <path class="cls-3" d="M1654.5,946c-.5,0-.9-.4-1-.9-2.7-25.2-4.7-27.1-29.8-29.8-.5,0-.9-.5-.9-1s.4-.9.9-1c25.2-2.7,27.1-4.7,29.8-29.8,0-.5.5-.9,1-.9s.9.4,1,.9c2.7,25.2,4.7,27.1,29.8,29.8.5,0,.9.5.9,1s-.4.9-.9,1c-25.2,2.7-27.1,4.7-29.8,29.8,0,.5-.5.9-1,.9ZM1631.9,914.2c16.3,2.4,20.2,6.3,22.5,22.5,2.4-16.3,6.3-20.2,22.5-22.5-16.3-2.4-20.2-6.3-22.5-22.5-2.4,16.3-6.3,20.2-22.5,22.5Z"/>
      </g>
      <g>
        <path class="cls-3" d="M1200,775.6c-25.7,2.8-28,5-30.7,30.7-2.8-25.7-5-28-30.7-30.7,25.7-2.8,28-5,30.7-30.7,2.8,25.7,5,28,30.7,30.7Z"/>
        <path class="cls-3" d="M1169.3,807.3h0c-.5,0-.9-.4-1-.9-2.7-25.2-4.7-27.1-29.9-29.8-.5,0-.9-.5-.9-1s.4-.9.9-1c25.2-2.7,27.1-4.7,29.9-29.9,0-.5.5-.9,1-.9s.9.4,1,.9c2.7,25.2,4.7,27.1,29.9,29.9.5,0,.9.5.9,1s-.4.9-.9,1c-25.2,2.7-27.1,4.7-29.9,29.8,0,.5-.5.9-1,.9ZM1146.7,775.6c16.3,2.4,20.2,6.3,22.5,22.5,2.4-16.3,6.3-20.2,22.5-22.5-16.3-2.4-20.2-6.3-22.5-22.5-2.4,16.3-6.3,20.2-22.5,22.5Z"/>
      </g>
      <g>
        <path class="cls-1" d="M2011.7,676.9c-25.7,2.8-28,5-30.7,30.7-2.8-25.7-5-28-30.7-30.7,25.7-2.8,28-5,30.7-30.7,2.8,25.7,5,28,30.7,30.7Z"/>
        <path class="cls-3" d="M1981,708.6c-.5,0-.9-.4-1-.9-2.7-25.2-4.7-27.1-29.8-29.9-.5,0-.9-.5-.9-1s.4-.9.9-1c25.2-2.7,27.1-4.7,29.8-29.9,0-.5.5-.9,1-.9h0c.5,0,.9.4,1,.9,2.7,25.2,4.7,27.1,29.8,29.9.5,0,.9.5.9,1s-.4.9-.9,1c-25.2,2.7-27.1,4.7-29.8,29.9,0,.5-.5.9-1,.9ZM1958.4,676.9c16.3,2.4,20.2,6.3,22.5,22.5,2.4-16.3,6.3-20.2,22.5-22.5-16.3-2.4-20.2-6.3-22.5-22.5-2.4,16.3-6.3,20.2-22.5,22.5Z"/>
      </g>
      <g>
        <path class="cls-1" d="M1434,320.3c-18.2,2-19.8,3.5-21.7,21.7-2-18.2-3.5-19.8-21.7-21.7,18.2-2,19.8-3.5,21.7-21.7,2,18.2,3.5,19.8,21.7,21.7Z"/>
        <path class="cls-3" d="M1412.2,343c-.5,0-.9-.4-1-.9-1.9-17.8-3.1-18.9-20.8-20.8-.5,0-.9-.5-.9-1s.4-.9.9-1c17.8-1.9,18.9-3.1,20.8-20.8,0-.5.5-.9,1-.9s.9.4,1,.9c1.9,17.8,3.1,18.9,20.8,20.8.5,0,.9.5.9,1s-.4.9-.9,1c-17.8,1.9-18.9,3.1-20.8,20.8,0,.5-.5.9-1,.9ZM1398.2,320.3c9.6,1.6,12.4,4.5,14,14,1.6-9.6,4.5-12.4,14-14-9.6-1.6-12.4-4.5-14-14-1.6,9.6-4.5,12.4-14,14Z"/>
      </g>
      <path class="cls-3" d="M946.4,650.6c-13.8,0-20.8-6.8-27.6-13.3-6.8-6.5-13.2-12.7-26.2-12.7s-19.4,6.2-26.2,12.7c-6.8,6.5-13.7,13.3-27.6,13.3s-20.8-6.8-27.6-13.3c-6.8-6.5-13.2-12.7-26.2-12.7s-19.4,6.2-26.2,12.7c-6.8,6.5-13.7,13.3-27.6,13.3s-20.8-6.8-27.6-13.3c-6.8-6.5-13.2-12.7-26.2-12.7s-1-.4-1-1,.4-1,1-1c13.8,0,20.8,6.8,27.6,13.3,6.8,6.5,13.1,12.7,26.2,12.7s19.4-6.2,26.2-12.7c6.8-6.5,13.7-13.3,27.6-13.3s20.8,6.8,27.6,13.3c6.8,6.5,13.2,12.7,26.2,12.7s19.4-6.2,26.2-12.7c6.8-6.5,13.7-13.3,27.6-13.3s20.8,6.8,27.6,13.3c6.8,6.5,13.2,12.7,26.2,12.7s1,.4,1,1-.4,1-1,1Z"/>
      <path class="cls-3" d="M731.3,685.8c-13.8,0-20.8-6.6-27.6-12.9-6.8-6.4-13.1-12.4-26.2-12.4s-1-.4-1-1,.4-1,1-1c13.8,0,20.8,6.6,27.6,12.9,6.8,6.4,13.2,12.4,26.2,12.4s19.4-6,26.2-12.4c6.8-6.3,13.7-12.9,27.6-12.9s0,0,0,0c2.4,0,4.7.2,6.9.6.5.1.9.6.8,1.2-.1.5-.6.9-1.2.8-2.1-.4-4.2-.6-6.6-.6-13,0-19.4,6-26.2,12.4-6.8,6.3-13.7,12.9-27.6,12.9Z"/>
      <path class="cls-3" d="M946.4,618.2c-13.8,0-20.8-6.8-27.6-13.3-6.8-6.5-13.2-12.7-26.2-12.7s-19.4,6.2-26.2,12.7c-6.8,6.5-13.7,13.3-27.6,13.3s-20.8-6.8-27.6-13.3c-6.8-6.5-13.2-12.7-26.2-12.7s-19.4,6.2-26.2,12.7c-6.8,6.5-13.7,13.3-27.6,13.3s-20.8-6.8-27.6-13.3c-6.8-6.5-13.2-12.7-26.2-12.7s-1-.4-1-1,.4-1,1-1c13.8,0,20.8,6.8,27.6,13.3,6.8,6.5,13.1,12.7,26.2,12.7s19.4-6.2,26.2-12.7c6.8-6.5,13.7-13.3,27.6-13.3s20.8,6.8,27.6,13.3c6.8,6.5,13.2,12.7,26.2,12.7s19.4-6.2,26.2-12.7c6.8-6.5,13.7-13.3,27.6-13.3s20.8,6.8,27.6,13.3c6.8,6.5,13.2,12.7,26.2,12.7s1,.4,1,1-.4,1-1,1Z"/>
      <path class="cls-3" d="M1038.5,1316H252.8c-.6,0-1-.4-1-1s.4-1,1-1h785.7c.6,0,1,.4,1,1s-.4,1-1,1Z"/>
      <path class="cls-3" d="M2084.8,1316h-949c-.6,0-1-.4-1-1s.4-1,1-1h949c.6,0,1,.4,1,1s-.4,1-1,1Z"/>
      <path class="cls-3" d="M1834,1349.6h-949c-.6,0-1-.4-1-1s.4-1,1-1h949c.6,0,1,.4,1,1s-.4,1-1,1Z"/>
      <path class="cls-3" d="M611.4,1349.6h-229.3c-.6,0-1-.4-1-1s.4-1,1-1h229.3c.6,0,1,.4,1,1s-.4,1-1,1Z"/>
      <path class="cls-3" d="M2289.5,1349.6h-229.3c-.6,0-1-.4-1-1s.4-1,1-1h229.3c.6,0,1,.4,1,1s-.4,1-1,1Z"/>
      <path class="cls-3" d="M1212.6,527h-130.4c-.6,0-1-.4-1-1s.4-1,1-1h130.4c.6,0,1,.4,1,1s-.4,1-1,1Z"/>
      <path class="cls-3" d="M1212.6,548h-130.4c-.6,0-1-.4-1-1s.4-1,1-1h130.4c.6,0,1,.4,1,1s-.4,1-1,1Z"/>
      <path class="cls-3" d="M1298.3,589.9h-216.1c-.6,0-1-.4-1-1s.4-1,1-1h216.1c.6,0,1,.4,1,1s-.4,1-1,1Z"/>
      <path class="cls-3" d="M1298.3,610.9h-216.1c-.6,0-1-.4-1-1s.4-1,1-1h216.1c.6,0,1,.4,1,1s-.4,1-1,1Z"/>
      <path class="cls-3" d="M1298.3,631.9h-216.1c-.6,0-1-.4-1-1s.4-1,1-1h216.1c.6,0,1,.4,1,1s-.4,1-1,1Z"/>
      <path class="cls-3" d="M1298.3,652.9h-216.1c-.6,0-1-.4-1-1s.4-1,1-1h216.1c.6,0,1,.4,1,1s-.4,1-1,1Z"/>
      <path class="cls-3" d="M1298.3,673.8h-216.1c-.6,0-1-.4-1-1s.4-1,1-1h216.1c.6,0,1,.4,1,1s-.4,1-1,1Z"/>
      <path class="cls-3" d="M1298.3,694.8h-216.1c-.6,0-1-.4-1-1s.4-1,1-1h216.1c.6,0,1,.4,1,1s-.4,1-1,1Z"/>
      <path class="cls-3" d="M1298.3,715.8h-216.1c-.6,0-1-.4-1-1s.4-1,1-1h216.1c.6,0,1,.4,1,1s-.4,1-1,1Z"/>
      <g>
        <circle class="cls-1" cx="817.4" cy="413.1" r="9.3"/>
        <path class="cls-3" d="M817.4,423.4c-5.7,0-10.3-4.6-10.3-10.3s4.6-10.3,10.3-10.3,10.3,4.6,10.3,10.3-4.6,10.3-10.3,10.3ZM817.4,404.8c-4.6,0-8.3,3.7-8.3,8.3s3.7,8.3,8.3,8.3,8.3-3.7,8.3-8.3-3.7-8.3-8.3-8.3Z"/>
      </g>
      <g>
        <circle class="cls-1" cx="841.6" cy="413.1" r="9.3"/>
        <path class="cls-3" d="M841.6,423.4c-5.7,0-10.3-4.6-10.3-10.3s4.6-10.3,10.3-10.3,10.3,4.6,10.3,10.3-4.6,10.3-10.3,10.3ZM841.6,404.8c-4.6,0-8.3,3.7-8.3,8.3s3.7,8.3,8.3,8.3,8.3-3.7,8.3-8.3-3.7-8.3-8.3-8.3Z"/>
      </g>
      <g>
        <circle class="cls-1" cx="865.7" cy="413.1" r="9.3"/>
        <path class="cls-3" d="M865.7,423.4c-5.7,0-10.3-4.6-10.3-10.3s4.6-10.3,10.3-10.3,10.3,4.6,10.3,10.3-4.6,10.3-10.3,10.3ZM865.7,404.8c-4.6,0-8.3,3.7-8.3,8.3s3.7,8.3,8.3,8.3,8.3-3.7,8.3-8.3-3.7-8.3-8.3-8.3Z"/>
      </g>
      <path class="cls-3" d="M789.9,899.3c-.4,0-.8-.3-.9-.7l-38.8-111.2c-.2-.5,0-1.1.6-1.3.5-.2,1.1,0,1.3.6l38.8,111.2c.2.5,0,1.1-.6,1.3-.1,0-.2,0-.3,0Z"/>
      <path class="cls-1" d="M1891.8,313.8c-.3,0-.5-.1-.7-.3-.4-.4-.4-1,0-1.4l112.4-104.9c.4-.4,1-.4,1.4,0,.4.4.4,1,0,1.4l-112.4,104.9c-.2.2-.4.3-.7.3Z"/>
      <path class="cls-1" d="M2004.2,313.8c-.2,0-.5,0-.7-.3l-112.4-104.9c-.4-.4-.4-1,0-1.4.4-.4,1-.4,1.4,0l112.4,104.9c.4.4.4,1,0,1.4-.2.2-.5.3-.7.3Z"/>
      <g>
        <ellipse class="cls-1" cx="1418.5" cy="869.6" rx="12.3" ry="6.5" transform="translate(-223.4 600.5) rotate(-22.2)"/>
        <path class="cls-3" d="M1413.5,878.2c-3.6,0-6.4-1.2-7.3-3.6h0c-1.6-3.9,2.6-9.1,9.5-12,6.9-2.8,13.5-2,15.1,1.9,1.6,3.9-2.6,9.1-9.5,11.9-2.7,1.1-5.4,1.7-7.8,1.7ZM1408,873.8c1.1,2.8,6.9,3.1,12.5.8,5.7-2.3,9.5-6.6,8.4-9.3s-6.9-3.1-12.5-.8c-5.7,2.3-9.5,6.6-8.4,9.3h0Z"/>
      </g>
      <g>
        <ellipse class="cls-1" cx="1400.6" cy="879.4" rx="5" ry="3.8" transform="translate(-228.4 594.5) rotate(-22.2)"/>
        <path class="cls-3" d="M1399.8,884.3c-2.1,0-4-1-4.7-2.7h0c-1-2.5.7-5.5,3.7-6.7,3-1.2,6.3-.3,7.3,2.2.5,1.2.4,2.6-.4,3.9-.7,1.2-1.9,2.2-3.3,2.8-.9.4-1.8.5-2.7.5ZM1397,880.9c.6,1.4,2.7,1.9,4.7,1.1,1-.4,1.9-1.1,2.3-1.9.4-.7.5-1.5.3-2.2-.6-1.4-2.7-1.9-4.7-1.1-2,.8-3.2,2.7-2.6,4.1h0Z"/>
      </g>
      <g>
        <ellipse class="cls-1" cx="2161.9" cy="394.7" rx="13" ry="6.7"/>
        <path class="cls-3" d="M2161.9,402.4c-7.8,0-14-3.4-14-7.7s6.1-7.7,14-7.7,14,3.4,14,7.7-6.1,7.7-14,7.7ZM2161.9,389c-7.2,0-12,2.9-12,5.7s4.8,5.7,12,5.7,12-2.9,12-5.7-4.8-5.7-12-5.7Z"/>
      </g>
      <g>
        <ellipse class="cls-1" cx="2139.4" cy="397" rx="6.1" ry="5.7" transform="translate(-28.8 580.5) rotate(-15.4)"/>
        <path class="cls-3" d="M2139.2,403.7c-3.1,0-5.8-1.9-6.6-4.8h0c-1-3.5,1.3-7.3,5.1-8.3,1.8-.5,3.7-.3,5.3.5,1.7.9,2.8,2.3,3.3,4,1,3.5-1.3,7.3-5.1,8.3-.7.2-1.3.3-2,.3ZM2134.5,398.4c.7,2.5,3.5,3.9,6.2,3.1,2.7-.8,4.4-3.4,3.7-5.9-.3-1.2-1.1-2.2-2.3-2.8-1.2-.6-2.6-.7-3.9-.4-2.7.7-4.4,3.4-3.7,5.9h0Z"/>
      </g>
      <g>
        <ellipse class="cls-2" cx="1756.3" cy="512" rx="39.1" ry="16"/>
        <path class="cls-3" d="M1756.3,529c-22.5,0-40.1-7.5-40.1-17s17.6-17,40.1-17,40.1,7.5,40.1,17-17.6,17-40.1,17ZM1756.3,497c-20.7,0-38.1,6.9-38.1,15s17.4,15,38.1,15,38.1-6.9,38.1-15-17.4-15-38.1-15Z"/>
      </g>
      <path class="cls-3" d="M1155,1296.9c-12.7,0-26.2-2.3-37.1-9.6-13-8.8-20.2-23.3-21.5-43.3-1.1-17.9,6.1-34.8,21.4-50.4,12.2-12.3,29.5-23.8,51.5-34.1,37.4-17.5,75.8-25.7,76.2-25.8.5-.1,1.1.2,1.2.8.1.5-.2,1.1-.8,1.2-.4,0-38.6,8.2-75.8,25.6-21.8,10.2-38.9,21.6-50.9,33.7-14.9,15.1-21.9,31.5-20.8,48.8,1.2,19.3,8.1,33.3,20.6,41.7,27.6,18.6,73.7,3.5,74.1,3.3.5-.2,1.1.1,1.3.6s-.1,1.1-.6,1.3c-.3,0-18.3,6-38.8,6Z"/>
      <g>
        <path class="cls-3" d="M1216.6,1175.8s-44.7,25.9-36,59.6c8.7,33.7,63.4,15.8,63.4,15.8l-27.4-75.4Z"/>
        <path class="cls-3" d="M1214.1,1257c-8.8,0-16-1.6-21.7-4.7-6.5-3.6-10.8-9.2-12.7-16.6-8.7-34,36-60.4,36.5-60.7.3-.1.6-.2.8,0,.3.1.5.3.6.6l27.4,75.4c0,.3,0,.5,0,.8-.1.2-.3.4-.6.5,0,0-8.3,2.7-18.7,4-4.1.5-7.9.8-11.5.8ZM1216.1,1177.3c-6.6,4.1-42.2,28.1-34.5,57.9,1.8,6.9,5.7,12.1,11.7,15.4,16.5,9,43.9,1.6,49.4,0l-26.6-73.2Z"/>
      </g>
      <path class="cls-2" d="M1036.5,1313.9c-2.9,0-5.7-1-7.9-2.7l-89.9-70.3c-2.7-2.1-6.3-2.5-9.4-1-3.1,1.5-5,4.5-5,8v.3c0,.8-.7,1.5-1.5,1.5s-1.5-.7-1.5-1.5v-.3c0-4.6,2.6-8.7,6.7-10.7,4.1-2,8.9-1.5,12.6,1.3l89.9,70.3c1.7,1.4,3.9,2.1,6.1,2.1,4.9,0,9-3.5,9.7-8.3l18.1-113c3.5-22,14.8-42.1,31.7-56.5,16.9-14.4,38.5-22.4,60.8-22.4s1.5.7,1.5,1.5-.7,1.5-1.5,1.5c-21.6,0-42.5,7.7-58.9,21.7-16.4,14-27.3,33.4-30.7,54.7l-18.1,113c-1,6.3-6.3,10.8-12.7,10.8Z"/>
      <path class="cls-1" d="M1232.4,1261.1c-.3,0-.5-.1-.7-.3-33.7-35.8-16.5-88.3-16.3-88.8.2-.5.7-.8,1.3-.6.5.2.8.7.6,1.3-.2.5-17,51.9,15.9,86.8.4.4.4,1,0,1.4-.2.2-.4.3-.7.3Z"/>
      <rect class="cls-3" x="437.9" y="943.3" width="34.9" height="118.2" rx="5.1" ry="5.1"/>
      <g>
        <path class="cls-1" d="M739,1270.1h225.9c7.4,0,13.5,6,13.5,13.5v31.4h-252.9v-31.4c0-7.4,6-13.5,13.5-13.5Z"/>
        <path class="cls-3" d="M978.4,1315.9h-252.9c-.6,0-1-.4-1-1v-31.4c0-8,6.5-14.5,14.5-14.5h225.9c8,0,14.5,6.5,14.5,14.5v31.4c0,.6-.4,1-1,1ZM726.5,1313.9h250.9v-30.4c0-6.9-5.6-12.5-12.5-12.5h-225.9c-6.9,0-12.5,5.6-12.5,12.5v30.4Z"/>
      </g>
      <path class="cls-2" d="M537.3,1313.9h-212.9c-2.9,0-5.3-1.9-5.8-4.8s.8-5.5,3.5-6.7l23.2-9.8c.8-.3,1.6,0,2,.8s0,1.6-.8,2l-23.2,9.8c-1.6.7-2,2.2-1.7,3.3s1.1,2.4,2.9,2.4h212.9c59.3,0,117.9-15.5,169.4-44.8l51.3-29.2c5.1-2.9,11.2-2.9,16.3,0,5.1,3,8.1,8.3,8.1,14.2v.7c0,.8-.7,1.5-1.5,1.5s-1.5-.7-1.5-1.5v-.7c0-4.8-2.5-9.1-6.7-11.6-4.2-2.4-9.2-2.4-13.3,0l-51.3,29.2c-52,29.6-111.1,45.2-170.9,45.2Z"/>
      <g>
        <rect class="cls-1" x="901.4" y="1248.2" width="42.8" height="21.9" rx="6.4" ry="6.4"/>
        <path class="cls-3" d="M937.8,1271.1h-29.9c-4.1,0-7.4-3.3-7.4-7.4v-9c0-4.1,3.3-7.4,7.4-7.4h29.9c4.1,0,7.4,3.3,7.4,7.4v9c0,4.1-3.3,7.4-7.4,7.4ZM907.8,1249.2c-3,0-5.4,2.4-5.4,5.4v9c0,3,2.4,5.4,5.4,5.4h29.9c3,0,5.4-2.4,5.4-5.4v-9c0-3-2.4-5.4-5.4-5.4h-29.9Z"/>
      </g>
      <g>
        <rect class="cls-1" x="896.6" y="1261.1" width="52.4" height="9"/>
        <path class="cls-3" d="M949,1271.1h-52.4c-.6,0-1-.4-1-1v-9c0-.6.4-1,1-1h52.4c.6,0,1,.4,1,1v9c0,.6-.4,1-1,1ZM897.6,1269.1h50.4v-7h-50.4v7Z"/>
      </g>
      <g>
        <rect class="cls-1" x="759.6" y="1248.2" width="42.8" height="21.9" rx="6.4" ry="6.4"/>
        <path class="cls-3" d="M796,1271.1h-29.9c-4.1,0-7.4-3.3-7.4-7.4v-9c0-4.1,3.3-7.4,7.4-7.4h29.9c4.1,0,7.4,3.3,7.4,7.4v9c0,4.1-3.3,7.4-7.4,7.4ZM766.1,1249.2c-3,0-5.4,2.4-5.4,5.4v9c0,3,2.4,5.4,5.4,5.4h29.9c3,0,5.4-2.4,5.4-5.4v-9c0-3-2.4-5.4-5.4-5.4h-29.9Z"/>
      </g>
      <g>
        <rect class="cls-1" x="825.7" y="1261.1" width="52.4" height="9"/>
        <path class="cls-3" d="M878.1,1271.1h-52.4c-.6,0-1-.4-1-1v-9c0-.6.4-1,1-1h52.4c.6,0,1,.4,1,1v9c0,.6-.4,1-1,1ZM826.7,1269.1h50.4v-7h-50.4v7Z"/>
      </g>
      <g>
        <rect class="cls-1" x="754.8" y="1261.1" width="52.4" height="9"/>
        <path class="cls-3" d="M807.2,1271.1h-52.4c-.6,0-1-.4-1-1v-9c0-.6.4-1,1-1h52.4c.6,0,1,.4,1,1v9c0,.6-.4,1-1,1ZM755.8,1269.1h50.4v-7h-50.4v7Z"/>
      </g>
      <g>
        <circle class="cls-2" cx="464.5" cy="965.1" r="10.7"/>
        <path class="cls-3" d="M464.5,976.8c-6.4,0-11.7-5.2-11.7-11.7s5.2-11.7,11.7-11.7,11.7,5.2,11.7,11.7-5.2,11.7-11.7,11.7ZM464.5,955.5c-5.3,0-9.7,4.3-9.7,9.7s4.3,9.7,9.7,9.7,9.7-4.3,9.7-9.7-4.3-9.7-9.7-9.7Z"/>
      </g>
      <g>
        <circle class="cls-2" cx="464.5" cy="997.8" r="10.7"/>
        <path class="cls-3" d="M464.5,1009.5c-6.4,0-11.7-5.2-11.7-11.7s5.2-11.7,11.7-11.7,11.7,5.2,11.7,11.7-5.2,11.7-11.7,11.7ZM464.5,988.2c-5.3,0-9.7,4.3-9.7,9.7s4.3,9.7,9.7,9.7,9.7-4.3,9.7-9.7-4.3-9.7-9.7-9.7Z"/>
      </g>
      <g>
        <circle class="cls-2" cx="464.5" cy="1030.5" r="10.7"/>
        <path class="cls-3" d="M464.5,1042.2c-6.4,0-11.7-5.2-11.7-11.7s5.2-11.7,11.7-11.7,11.7,5.2,11.7,11.7-5.2,11.7-11.7,11.7ZM464.5,1020.9c-5.3,0-9.7,4.3-9.7,9.7s4.3,9.7,9.7,9.7,9.7-4.3,9.7-9.7-4.3-9.7-9.7-9.7Z"/>
      </g>
      <path class="cls-1" d="M507,1267.4c-2.7,0-5.4-1.4-7-3.8-10.3-16.1-22.3-21.8-29.4-23.7-3.5-1-6-4.1-6.1-7.8h0c-.1-5.6,5.1-9.7,10.5-8.2,10.2,2.8,25.7,10.3,38.7,30.5,2.3,3.6,1.7,8.5-1.6,11.1-1.6,1.2-3.4,1.8-5.2,1.8Z"/>
      <circle class="cls-1" cx="449.5" cy="1227.3" r="7.9"/>
      <path class="cls-1" d="M920.7,1105.7c-3.3-.7-6.3-3.1-7.5-6.5-8.4-22.5-21.7-32.5-29.8-36.7-4.1-2.1-6.3-6.6-5.4-11.1h0c1.3-6.8,8.8-10.5,15-7.3,11.7,6,28.9,19.3,39.5,47.5,1.9,5,0,10.8-4.9,13.2s-4.6,1.4-6.8.9Z"/>
      <circle class="cls-1" cx="863.8" cy="1038.8" r="9.9"/>
      <g>
        <g>
          <path class="cls-3" d="M694.4,1104.5c0-9.6,7.4-17.4,7.4-17.4,0,0,7.4,7.8,7.4,17.4s-7.4,17.4-7.4,17.4c0,0-7.4-7.8-7.4-17.4Z"/>
          <path class="cls-3" d="M701.8,1122.8c-.3,0-.5-.1-.7-.3-.3-.3-7.7-8.2-7.7-18.1s7.4-17.7,7.7-18.1c.4-.4,1.1-.4,1.4,0,.3.3,7.7,8.2,7.7,18.1s-7.4,17.7-7.7,18.1c-.2.2-.5.3-.7.3ZM701.8,1088.6c-1.8,2.2-6.4,8.5-6.4,15.8s4.6,13.6,6.4,15.8c1.8-2.2,6.4-8.5,6.4-15.8s-4.6-13.6-6.4-15.8Z"/>
        </g>
        <g>
          <path class="cls-3" d="M677.6,1091.4c6.8-6.8,17.5-7,17.5-7,0,0-.3,10.7-7,17.5-6.8,6.8-17.5,7-17.5,7,0,0,.3-10.7,7-17.5Z"/>
          <path class="cls-3" d="M670.5,1109.9c-.3,0-.5-.1-.7-.3s-.3-.5-.3-.7c0-.5.4-11.2,7.3-18.2s17.7-7.3,18.2-7.3c.3,0,.5,0,.7.3.2.2.3.5.3.7,0,.5-.4,11.2-7.3,18.2s-17.7,7.3-18.2,7.3h0ZM694,1085.4c-2.8.3-10.6,1.5-15.7,6.7-5.2,5.2-6.4,12.9-6.7,15.7,2.8-.3,10.6-1.5,15.7-6.7,5.2-5.2,6.4-12.9,6.7-15.7Z"/>
        </g>
        <g>
          <path class="cls-3" d="M674.9,1070.2c9.6,0,17.4,7.4,17.4,7.4,0,0-7.8,7.4-17.4,7.4s-17.4-7.4-17.4-7.4c0,0,7.8-7.4,17.4-7.4Z"/>
          <path class="cls-3" d="M674.9,1086c-9.9,0-17.7-7.4-18.1-7.7-.2-.2-.3-.5-.3-.7s.1-.5.3-.7c.3-.3,8.2-7.7,18.1-7.7s17.7,7.4,18.1,7.7c.2.2.3.5.3.7s-.1.5-.3.7c-.3.3-8.2,7.7-18.1,7.7ZM659.1,1077.6c2.2,1.8,8.5,6.4,15.8,6.4s13.6-4.6,15.8-6.4c-2.2-1.8-8.5-6.4-15.8-6.4s-13.6,4.6-15.8,6.4Z"/>
        </g>
        <g>
          <path class="cls-3" d="M688.1,1053.3c6.8,6.8,7,17.5,7,17.5,0,0-10.7-.3-17.5-7-6.8-6.8-7-17.5-7-17.5,0,0,10.7.3,17.5,7Z"/>
          <path class="cls-3" d="M695.1,1071.8h0c-.5,0-11.2-.4-18.2-7.3s-7.3-17.7-7.3-18.2c0-.3,0-.5.3-.7s.5-.3.7-.3c.5,0,11.2.4,18.2,7.3h0c7,7,7.3,17.7,7.3,18.2,0,.3,0,.5-.3.7s-.4.3-.7.3ZM671.6,1047.4c.3,2.8,1.5,10.6,6.7,15.7,5.2,5.2,12.9,6.4,15.7,6.7-.3-2.8-1.5-10.6-6.7-15.7-5.2-5.2-12.9-6.4-15.7-6.7Z"/>
        </g>
        <g>
          <path class="cls-3" d="M709.2,1050.7c0,9.6-7.4,17.4-7.4,17.4,0,0-7.4-7.8-7.4-17.4s7.4-17.4,7.4-17.4c0,0,7.4,7.8,7.4,17.4Z"/>
          <path class="cls-3" d="M701.8,1069c-.3,0-.5-.1-.7-.3-.3-.3-7.7-8.2-7.7-18.1s7.4-17.7,7.7-18.1c.4-.4,1.1-.4,1.4,0,.3.3,7.7,8.2,7.7,18.1s-7.4,17.7-7.7,18.1c-.2.2-.5.3-.7.3ZM701.8,1034.8c-1.8,2.2-6.4,8.5-6.4,15.8s4.6,13.6,6.4,15.8c1.8-2.2,6.4-8.5,6.4-15.8s-4.6-13.6-6.4-15.8Z"/>
        </g>
        <g>
          <path class="cls-3" d="M726.1,1063.8c-6.8,6.8-17.5,7-17.5,7,0,0,.3-10.7,7-17.5,6.8-6.8,17.5-7,17.5-7,0,0-.3,10.7-7,17.5Z"/>
          <path class="cls-3" d="M708.6,1071.8c-.3,0-.5-.1-.7-.3s-.3-.5-.3-.7c0-.5.4-11.2,7.3-18.2,7-7,17.7-7.3,18.2-7.3.3,0,.5,0,.7.3s.3.5.3.7c0,.5-.4,11.2-7.3,18.2h0c-7,7-17.7,7.3-18.2,7.3h0ZM732.1,1047.4c-2.8.3-10.6,1.5-15.7,6.7-5.2,5.2-6.4,12.9-6.7,15.7,2.8-.3,10.6-1.5,15.7-6.7,5.2-5.2,6.4-12.9,6.7-15.7ZM726.1,1063.8h0,0Z"/>
        </g>
        <g>
          <path class="cls-3" d="M728.7,1085c-9.6,0-17.4-7.4-17.4-7.4,0,0,7.8-7.4,17.4-7.4s17.4,7.4,17.4,7.4c0,0-7.8,7.4-17.4,7.4Z"/>
          <path class="cls-3" d="M728.7,1086c-9.9,0-17.7-7.4-18.1-7.7-.2-.2-.3-.5-.3-.7s.1-.5.3-.7c.3-.3,8.2-7.7,18.1-7.7s17.7,7.4,18.1,7.7c.2.2.3.5.3.7s-.1.5-.3.7c-.3.3-8.2,7.7-18.1,7.7ZM712.9,1077.6c2.2,1.8,8.5,6.4,15.8,6.4s13.6-4.6,15.8-6.4c-2.2-1.8-8.5-6.4-15.8-6.4s-13.6,4.6-15.8,6.4Z"/>
        </g>
        <g>
          <path class="cls-3" d="M715.6,1101.8c-6.8-6.8-7-17.5-7-17.5,0,0,10.7.3,17.5,7s7,17.5,7,17.5c0,0-10.7-.3-17.5-7Z"/>
          <path class="cls-3" d="M733.1,1109.9h0c-.5,0-11.2-.4-18.2-7.3s-7.3-17.7-7.3-18.2c0-.3,0-.5.3-.7.2-.2.5-.3.7-.3.5,0,11.2.4,18.2,7.3s7.3,17.7,7.3,18.2c0,.3,0,.5-.3.7s-.4.3-.7.3ZM709.7,1085.4c.3,2.8,1.5,10.6,6.7,15.7,5.2,5.2,12.9,6.4,15.7,6.7-.3-2.8-1.5-10.6-6.7-15.7-5.2-5.2-12.9-6.4-15.7-6.7Z"/>
        </g>
      </g>
      <polygon class="cls-3" points="2056.8 1047.9 2074.6 1096 2022.2 1257.8 2005 1211.8 2056.8 1047.9"/>
      <polygon class="cls-3" points="2071.3 1001.9 2080.1 1025.4 2065.5 1071.3 2056.8 1047.9 2071.3 1001.9"/>
    </g>
  </g>
</svg>