<svg width="46" height="46" viewBox="0 0 46 46" fill="none" xmlns="http://www.w3.org/2000/svg">
<circle cx="23" cy="23" r="21.045" fill="currentColor"/>
<path fill-rule="evenodd" clip-rule="evenodd" d="M18.423 36.39L15.328 32.012C15.2984 31.9701 15.2774 31.9228 15.2661 31.8728C15.2548 31.8228 15.2534 31.771 15.2622 31.7205C15.2709 31.67 15.2895 31.6217 15.3169 31.5783C15.3444 31.535 15.3801 31.4975 15.422 31.468L17.468 30.022C19.585 28.525 20.849 26.449 20.849 23.492V10.161C20.849 10.0576 20.8901 9.95836 20.9632 9.88522C21.0364 9.81209 21.1356 9.771 21.239 9.771H26.701V23.491C26.701 28.874 25.201 31.561 20.788 34.718L18.423 36.39Z" fill="white"/>
<path fill-rule="evenodd" clip-rule="evenodd" d="M26.54 9.77301V23.263C26.54 28.647 25.04 31.333 20.626 34.49L18.26 36.16L19.386 37.753C19.4155 37.7949 19.453 37.8306 19.4963 37.8581C19.5397 37.8855 19.588 37.9041 19.6385 37.9128C19.689 37.9216 19.7408 37.9202 19.7908 37.9089C19.8408 37.8977 19.8881 37.8766 19.93 37.847L21.987 36.393C24.604 34.52 26.244 32.799 27.302 30.811C28.393 28.765 28.879 26.436 28.879 23.261V10.163C28.879 10.0596 28.8379 9.96038 28.7648 9.88724C28.6916 9.8141 28.5924 9.77301 28.489 9.77301H26.54Z" fill="#f6f6f6"/>
</svg>
