<svg width="52" height="88" viewBox="0 0 52 88" fill="none" xmlns="http://www.w3.org/2000/svg">
<path d="M1.39367 12.1427L21.8342 0.252565C23.0628 -0.46487 24.6041 0.431924 24.6041 1.86242V56.1906C24.6041 56.6675 24.0918 56.9693 23.6794 56.7287L1.39367 43.7624C0.529681 43.2593 0 42.3363 0 41.3345V14.5706C0 13.5689 0.529681 12.6414 1.39367 12.1427Z" fill="currentColor" />
<path d="M50.4717 42.2703L29.5406 30.0958C28.3119 29.3783 26.7706 30.2751 26.7706 31.7056V56.2165V57.179C26.7185 57.9401 26.4146 58.522 25.8111 58.955L24.6172 59.6506C24.5781 59.6637 24.5433 59.6768 24.5043 59.6856L24.5954 59.6594L3.85105 71.7289C2.62236 72.4463 2.62236 74.2355 3.85105 74.9486L24.7735 87.1187C25.3466 87.4512 26.0499 87.4512 26.6187 87.1187L48.01 74.6774C50.1026 73.4612 51.3965 71.2083 51.3965 68.7716V43.8802C51.3965 43.2152 51.0404 42.6028 50.4717 42.2703Z" fill="currentColor" />
</svg>
